<?xml version="1.0" encoding="utf-8"?>
<!-- Generator: Adobe Illustrator 24.0.1, SVG Export Plug-In . SVG Version: 6.00 Build 0)  -->
<svg version="1.1" id="Camada_1" xmlns="http://www.w3.org/2000/svg" xmlns:xlink="http://www.w3.org/1999/xlink" x="0px" y="0px"
	 viewBox="0 0 11.1 11.2" style="enable-background:new 0 0 11.1 11.2;" xml:space="preserve">
<style type="text/css">
	.st0{enable-background:new    ;}
	.st1{fill:#C96120;}
</style>
<g id="Camada_1-2">
	<g class="st0">
		<path class="st1" d="M3.5,7.9l1.9-1.9L3.5,4c-0.2-0.2-0.2-0.3,0-0.5c0.2-0.2,0.3-0.2,0.5,0l1.9,1.9l1.9-1.9c0.2-0.2,0.3-0.2,0.5,0
			c0.2,0.2,0.2,0.3,0,0.5L6.4,5.9l1.9,1.9c0.2,0.2,0.2,0.3,0,0.5C8.2,8.5,8,8.5,7.9,8.3L5.9,6.4L4,8.3c-0.2,0.2-0.3,0.2-0.5,0
			C3.3,8.2,3.3,8,3.5,7.9z"/>
	</g>
</g>
</svg>
