<svg xmlns="http://www.w3.org/2000/svg" viewBox="0 0 30.75 35"><defs><style>.cls-1{fill:none;stroke:#0068ae;stroke-miterlimit:10;}.cls-2{fill:#0068ae;}</style></defs><title>pdf</title><g id="Camada_2" data-name="Camada 2"><g id="Camada_1-2" data-name="Camada 1"><path class="cls-1" d="M1.12,33.88A2.08,2.08,0,0,1,.5,32.37V2.63A2.12,2.12,0,0,1,2.63.5h25.5a2.12,2.12,0,0,1,2.12,2.13V32.37a2.12,2.12,0,0,1-2.12,2.13H2.63A2.08,2.08,0,0,1,1.12,33.88Zm1.51-1.51h25.5V2.63H2.63Z"/><path class="cls-2" d="M11.74,15.72a2.59,2.59,0,0,1,.93,1A3.27,3.27,0,0,1,13,18.29a3.37,3.37,0,0,1-.35,1.55,2.61,2.61,0,0,1-.93,1,2.45,2.45,0,0,1-1.33.37A2.29,2.29,0,0,1,9.31,21a2.51,2.51,0,0,1-.78-.65v3.53H7.09V15.46H8.53v.82a2.07,2.07,0,0,1,.77-.65,2.23,2.23,0,0,1,1.11-.27A2.53,2.53,0,0,1,11.74,15.72ZM9.3,16.83a1.56,1.56,0,0,0-.56.58,1.87,1.87,0,0,0-.21.9,1.8,1.8,0,0,0,.21.89,1.52,1.52,0,0,0,.56.59A1.46,1.46,0,0,0,10,20a1.42,1.42,0,0,0,.75-.21,1.5,1.5,0,0,0,.55-.59,1.81,1.81,0,0,0,.21-.9,1.78,1.78,0,0,0-.21-.89,1.44,1.44,0,0,0-.55-.57,1.5,1.5,0,0,0-.75-.2A1.46,1.46,0,0,0,9.3,16.83Z"/><path class="cls-2" d="M17.37,15.61a2.08,2.08,0,0,1,.81.64V13.54h1.46v7.62H18.18v-.84a2,2,0,0,1-.76.68,2.34,2.34,0,0,1-1.12.25A2.44,2.44,0,0,1,15,20.88a2.64,2.64,0,0,1-.94-1,3.37,3.37,0,0,1-.34-1.55A3.32,3.32,0,0,1,14,16.75a2.61,2.61,0,0,1,.94-1,2.55,2.55,0,0,1,1.33-.36A2.3,2.3,0,0,1,17.37,15.61Zm-1.44,1.22a1.51,1.51,0,0,0-.55.57,1.78,1.78,0,0,0-.21.89,1.87,1.87,0,0,0,.21.9,1.52,1.52,0,0,0,.56.59,1.37,1.37,0,0,0,.73.21A1.48,1.48,0,0,0,18,19.21a2,2,0,0,0,0-1.8,1.48,1.48,0,0,0-2.05-.58Z"/><path class="cls-2" d="M23.66,16.64h-1v4.52H21.2V16.64h-.65V15.46h.65v-.29a1.9,1.9,0,0,1,.6-1.55,2.67,2.67,0,0,1,1.8-.46v1.22a1.08,1.08,0,0,0-.73.17.87.87,0,0,0-.2.67v.24h1Z"/></g></g></svg>