<svg xmlns="http://www.w3.org/2000/svg" viewBox="0 0 30.75 35"><defs><style>.cls-1{fill:none;stroke:#0068ae;stroke-miterlimit:10;}.cls-2{fill:#0068ae;}</style></defs><title>plu</title><g id="Camada_2" data-name="Camada 2"><g id="Camada_1-2" data-name="Camada 1"><path class="cls-1" d="M1.12,33.88A2.08,2.08,0,0,1,.5,32.37V2.63A2.12,2.12,0,0,1,2.63.5h25.5a2.12,2.12,0,0,1,2.12,2.13V32.37a2.12,2.12,0,0,1-2.12,2.13H2.63A2.08,2.08,0,0,1,1.12,33.88Zm1.51-1.51h25.5V2.63H2.63Z"/><path class="cls-2" d="M12.41,15.72a2.54,2.54,0,0,1,.94,1,3.27,3.27,0,0,1,.34,1.54,3.37,3.37,0,0,1-.34,1.55,2.57,2.57,0,0,1-.94,1,2.41,2.41,0,0,1-1.32.37A2.22,2.22,0,0,1,10,21a2.35,2.35,0,0,1-.78-.64v3.53H7.76V15.46H9.2v.82a2.15,2.15,0,0,1,.77-.65,2.29,2.29,0,0,1,1.12-.27A2.49,2.49,0,0,1,12.41,15.72ZM10,16.83a1.56,1.56,0,0,0-.56.58,1.87,1.87,0,0,0-.21.9,1.8,1.8,0,0,0,.21.89,1.59,1.59,0,0,0,.56.59,1.47,1.47,0,0,0,.74.2,1.41,1.41,0,0,0,.74-.21,1.52,1.52,0,0,0,.56-.59,1.81,1.81,0,0,0,.21-.9A1.78,1.78,0,0,0,12,17.4a1.46,1.46,0,0,0-.56-.57,1.49,1.49,0,0,0-.74-.2A1.47,1.47,0,0,0,10,16.83Z"/><path class="cls-2" d="M16.18,13.54v7.62H14.74V13.54Z"/><path class="cls-2" d="M23,15.46v5.7H21.54v-.72a1.9,1.9,0,0,1-.73.58,2.25,2.25,0,0,1-1,.21A2.43,2.43,0,0,1,18.65,21a2,2,0,0,1-.8-.84,2.67,2.67,0,0,1-.3-1.31V15.46H19V18.6a1.49,1.49,0,0,0,.34,1,1.37,1.37,0,0,0,1.87,0,1.49,1.49,0,0,0,.34-1V15.46Z"/></g></g></svg>