<svg xmlns="http://www.w3.org/2000/svg" viewBox="0 0 30.75 35"><defs><style>.cls-1{fill:none;stroke:#0068ae;stroke-miterlimit:10;}.cls-2{fill:#0068ae;}</style></defs><title>psd</title><g id="Camada_2" data-name="Camada 2"><g id="Camada_1-2" data-name="Camada 1"><path class="cls-1" d="M1.12,33.88A2.08,2.08,0,0,1,.5,32.37V2.63A2.12,2.12,0,0,1,2.63.5h25.5a2.12,2.12,0,0,1,2.12,2.13V32.37a2.12,2.12,0,0,1-2.12,2.13H2.63A2.08,2.08,0,0,1,1.12,33.88Zm1.51-1.51h25.5V2.63H2.63Z"/><path class="cls-2" d="M10.94,15.63a2.48,2.48,0,0,1,.94,1,3.25,3.25,0,0,1,.34,1.53,3.34,3.34,0,0,1-.34,1.55,2.59,2.59,0,0,1-.94,1.05,2.39,2.39,0,0,1-1.32.37,2.33,2.33,0,0,1-1.11-.26,2.24,2.24,0,0,1-.77-.65v3.54H6.29V15.36H7.74v.83a2.24,2.24,0,0,1,.76-.66,2.4,2.4,0,0,1,1.12-.26A2.47,2.47,0,0,1,10.94,15.63ZM8.5,16.74a1.47,1.47,0,0,0-.55.58,2,2,0,0,0,0,1.79,1.45,1.45,0,0,0,1.29.78,1.43,1.43,0,0,0,.75-.2,1.65,1.65,0,0,0,.55-.59,1.85,1.85,0,0,0,.21-.91,1.83,1.83,0,0,0-.21-.89,1.43,1.43,0,0,0-1.3-.76A1.4,1.4,0,0,0,8.5,16.74Z"/><path class="cls-2" d="M14.2,20.91a2.26,2.26,0,0,1-.88-.69,1.68,1.68,0,0,1-.35-.95h1.45a.77.77,0,0,0,.32.54,1.18,1.18,0,0,0,.71.22,1.08,1.08,0,0,0,.64-.17.48.48,0,0,0,.23-.42A.45.45,0,0,0,16,19a5.77,5.77,0,0,0-.9-.3,7.08,7.08,0,0,1-1.05-.32,1.92,1.92,0,0,1-.7-.5A1.41,1.41,0,0,1,13.1,17a1.46,1.46,0,0,1,.27-.86,1.77,1.77,0,0,1,.79-.62,2.9,2.9,0,0,1,1.19-.23,2.45,2.45,0,0,1,1.63.51,1.87,1.87,0,0,1,.67,1.38H16.27a.76.76,0,0,0-.28-.55,1.1,1.1,0,0,0-.68-.2,1,1,0,0,0-.6.15.45.45,0,0,0-.21.4.48.48,0,0,0,.29.44,4.29,4.29,0,0,0,.89.3,6.57,6.57,0,0,1,1,.32,1.83,1.83,0,0,1,.7.51,1.38,1.38,0,0,1,.3.91,1.53,1.53,0,0,1-.27.89,1.8,1.8,0,0,1-.78.61,2.94,2.94,0,0,1-1.19.22A3,3,0,0,1,14.2,20.91Z"/><path class="cls-2" d="M22.19,15.51a2.07,2.07,0,0,1,.8.65V13.45h1.47v7.62H23v-.85a1.84,1.84,0,0,1-.75.68,2.34,2.34,0,0,1-1.12.26,2.44,2.44,0,0,1-1.32-.37,2.59,2.59,0,0,1-.94-1.05,3.66,3.66,0,0,1,0-3.08,2.48,2.48,0,0,1,.94-1,2.53,2.53,0,0,1,1.33-.36A2.45,2.45,0,0,1,22.19,15.51Zm-1.44,1.22a1.44,1.44,0,0,0-.55.57,1.83,1.83,0,0,0-.21.89,1.88,1.88,0,0,0,.21.91,1.57,1.57,0,0,0,.55.59,1.49,1.49,0,0,0,2.05-.57,1.81,1.81,0,0,0,.2-.9,1.88,1.88,0,0,0-.2-.91,1.49,1.49,0,0,0-1.31-.77A1.46,1.46,0,0,0,20.75,16.73Z"/></g></g></svg>