<svg xmlns="http://www.w3.org/2000/svg" viewBox="0 0 30.75 35"><defs><style>.cls-1{fill:none;stroke:#0068ae;stroke-miterlimit:10;}.cls-2{fill:#0068ae;}</style></defs><title>text</title><g id="Camada_2" data-name="Camada 2"><g id="Camada_1-2" data-name="Camada 1"><path class="cls-1" d="M1.12,33.88A2.08,2.08,0,0,1,.5,32.37V2.63A2.12,2.12,0,0,1,2.63.5h25.5a2.12,2.12,0,0,1,2.12,2.13V32.37a2.12,2.12,0,0,1-2.12,2.13H2.63A2.08,2.08,0,0,1,1.12,33.88Zm1.51-1.51h25.5V2.63H2.63Z"/><path class="cls-2" d="M9.72,16.61v2.76a.52.52,0,0,0,.14.42.66.66,0,0,0,.47.13H11v1.21h-.9a1.58,1.58,0,0,1-1.82-1.77V16.61H7.59V15.43h.68V14H9.72v1.41H11v1.18Z"/><path class="cls-2" d="M17.29,18.72H13.13a1.35,1.35,0,0,0,.43,1,1.28,1.28,0,0,0,.93.35,1.19,1.19,0,0,0,1.15-.69h1.55a2.6,2.6,0,0,1-1,1.36,2.74,2.74,0,0,1-1.71.53,3,3,0,0,1-1.48-.37,2.53,2.53,0,0,1-1-1,3.47,3.47,0,0,1,0-3.1,2.51,2.51,0,0,1,1-1,3,3,0,0,1,1.5-.36,2.91,2.91,0,0,1,1.45.35,2.44,2.44,0,0,1,1,1,3,3,0,0,1,.36,1.48A3.24,3.24,0,0,1,17.29,18.72Zm-1.45-1a1.12,1.12,0,0,0-.4-.89,1.39,1.39,0,0,0-1-.34,1.32,1.32,0,0,0-.9.33,1.38,1.38,0,0,0-.44.9Z"/><path class="cls-2" d="M21.54,21.13l-1.18-1.77-1,1.77H17.78l1.86-2.86-1.88-2.84h1.62l1.17,1.76,1.05-1.76h1.54l-1.87,2.84,1.89,2.86Z"/></g></g></svg>