<?xml version="1.0" encoding="utf-8"?>
<!-- Generator: Adobe Illustrator 24.0.1, SVG Export Plug-In . SVG Version: 6.00 Build 0)  -->
<svg version="1.1" id="Camada_1" xmlns="http://www.w3.org/2000/svg" xmlns:xlink="http://www.w3.org/1999/xlink" x="0px" y="0px"
	 viewBox="0 0 11.1 11.2" style="enable-background:new 0 0 11.1 11.2;" xml:space="preserve">
<style type="text/css">
	.st0{enable-background:new    ;}
	.st1{fill:#0177FB;}
</style>
<title>yes</title>
<g id="Camada_2_1_">
	<g id="Camada_1-2">
		<g class="st0">
			<path class="st1" d="M4.8,8.9L2.2,6.4C2.1,6.3,2.1,6.2,2.1,6.1s0-0.3,0.1-0.4c0.1-0.1,0.2-0.2,0.3-0.2c0.1,0,0.2,0,0.3,0.1L5,7.8
				l3.9-6.2C8.9,1.5,9,1.4,9.2,1.4s0.3,0,0.4,0.1c0.1,0.1,0.2,0.2,0.2,0.3c0,0.1,0,0.3-0.1,0.4L5.5,8.8c0,0,0,0,0,0.1
				c0,0,0,0-0.1,0.1l0,0C5.3,9,5.3,9,5.2,9c0,0,0,0,0,0c0,0-0.1,0-0.1,0C5,9,5,9,5,9c0,0,0,0-0.1,0C4.9,8.9,4.8,8.9,4.8,8.9
				C4.8,8.9,4.8,8.9,4.8,8.9z"/>
		</g>
	</g>
</g>
</svg>
