<?xml version="1.0" encoding="utf-8"?>
<!-- Generator: Adobe Illustrator 24.0.1, SVG Export Plug-In . SVG Version: 6.00 Build 0)  -->
<svg version="1.1" id="Camada_1" xmlns="http://www.w3.org/2000/svg" xmlns:xlink="http://www.w3.org/1999/xlink" x="0px" y="0px"
	 viewBox="0 0 36 35.5" style="enable-background:new 0 0 36 35.5;" xml:space="preserve">
<style type="text/css">
	.st0{enable-background:new    ;}
	.st1{fill:none;stroke:#0177FB;stroke-miterlimit:10;}
</style>
<title>bloco</title>
<g id="Camada_2_1_">
	<g id="Camada_1-2">
		<g class="st0">
			<path class="st1" d="M35,15.2L35,15.2v0.1c0,0,0,0.1,0,0.2c0,0.1,0,0.2,0,0.2c0,1.8-0.4,3.6-1.1,5.2c-0.7,1.7-1.5,3.1-2.5,4.3
				c-1,1.2-2.1,2.4-3.4,3.4c-1.3,1.1-2.5,1.9-3.6,2.6s-2.2,1.3-3.3,1.8c-1.2,0.6-1.9,0.9-2.3,1s-0.7,0.2-0.9,0.3
				c-0.2-0.1-0.5-0.2-0.9-0.4c-0.4-0.2-1.2-0.5-2.3-1s-2.2-1.1-3.3-1.8c-1-0.7-2.2-1.5-3.5-2.6c-1.3-1.1-2.4-2.2-3.4-3.4
				c-1-1.2-1.8-2.6-2.4-4.3s-1-3.4-1.1-5.2c0,0,0-0.1,0-0.2c0-0.1,0-0.2,0-0.2v-0.1c0,0,0-0.1,0-0.1c0-2.6,1-4.9,2.9-6.9
				c1.9-2,4.1-3,6.7-3c3,0,5.5,1.3,7.4,3.9c1.9-2.6,4.4-3.9,7.4-3.9c2.6,0,4.8,1,6.7,3C34,10.3,35,12.6,35,15.2L35,15.2z M32.9,15.4
				c0,0,0-0.1,0-0.1c0-2.1-0.8-4-2.3-5.5s-3.2-2.3-5.2-2.3c-2.3,0-4.2,1-5.7,3.1c-0.4,0.6-1,0.9-1.7,0.9c-0.7,0-1.3-0.3-1.7-0.9
				c-1.5-2-3.4-3.1-5.7-3.1c-2,0-3.7,0.8-5.2,2.3s-2.2,3.4-2.3,5.5c0,0,0,0.1,0,0.1c0,0.1,0.1,0.2,0.1,0.3c0,1.9,0.5,3.8,1.4,5.6
				c0.9,1.8,1.9,3.2,3,4.4c1.1,1.2,2.4,2.2,4,3.3c1.5,1,2.7,1.7,3.7,2.2c0.9,0.4,1.8,0.8,2.7,1.2c0.8-0.4,1.7-0.8,2.7-1.2
				c1-0.4,2.2-1.2,3.7-2.2c1.5-1,2.9-2.1,4-3.3c1.2-1.2,2.2-2.6,3.1-4.4c0.9-1.8,1.4-3.6,1.4-5.5C32.8,15.6,32.8,15.5,32.9,15.4z"/>
		</g>
	</g>
</g>
</svg>
