<?xml version="1.0" encoding="utf-8"?>
<!-- Generator: Adobe Illustrator 24.0.1, SVG Export Plug-In . SVG Version: 6.00 Build 0)  -->
<svg version="1.1" id="Camada_1" xmlns="http://www.w3.org/2000/svg" xmlns:xlink="http://www.w3.org/1999/xlink" x="0px" y="0px"
	 viewBox="0 0 36 36" style="enable-background:new 0 0 36 36;" xml:space="preserve">
<style type="text/css">
	.st0{enable-background:new    ;}
	.st1{fill:#0177FB;}
</style>
<title>comunidade</title>
<g id="Camada_1-2">
	<g class="st0">
		<g>
			<path class="st1" d="M28.6,35.6H3.1c-0.7,0-1.4-0.3-1.9-0.7c-0.5-0.6-0.7-1.3-0.7-2V3.2c0-0.7,0.3-1.4,0.7-1.9
				c0.6-0.6,1.1-0.8,1.9-0.8h25.5c0.8,0,1.4,0.3,1.9,0.9c0.5,0.5,0.7,1.1,0.7,1.8V33c0,0.7-0.3,1.4-0.7,1.9
				C30,35.3,29.3,35.6,28.6,35.6z M3.1,1.5C2.7,1.5,2.4,1.6,2,2.1C1.6,2.4,1.5,2.7,1.5,3.2v29.7c0,0.5,0.2,0.9,0.5,1.3
				c0.3,0.3,0.6,0.4,1.1,0.4h25.5c0.5,0,0.8-0.1,1.1-0.5c0.3-0.3,0.5-0.7,0.5-1.1V3.2c0-0.5-0.1-0.8-0.5-1.1l0,0
				c-0.3-0.4-0.6-0.5-1.1-0.5H3.1z M29.1,33.5H9V2.7h20.1V33.5z M10,32.5h18.1V3.7H10V32.5z M7.9,33.4H2.6V2.7h5.3V33.4z M3.6,32.4
				h3.3V3.7H3.6V32.4z M19,27.5c-0.9,0-1.8-0.1-2.7-0.4c-2-0.6-3-1.6-3-3.1c0-2,0.5-3.8,1.6-5.3c1.1-1.5,2.5-2.3,4.1-2.3
				s3,0.8,4.1,2.3c1.1,1.5,1.6,3.3,1.6,5.3c0,0.8-0.4,2.3-3,3.1C20.8,27.3,19.9,27.5,19,27.5z M19,17.4c-1.3,0-2.4,0.7-3.3,1.9
				c-0.9,1.3-1.4,2.9-1.4,4.7c0,0.7,0.3,1.5,2.2,2.1c1.6,0.5,3.2,0.5,4.9,0c1-0.3,2.2-0.9,2.2-2.1c0-1.8-0.5-3.4-1.4-4.7
				C21.4,18.1,20.3,17.4,19,17.4z M35.5,27h-3.1v-7.4h3.1V27z M33.4,26h1.1v-5.4h-1.1V26z M35.5,18.5h-3.1v-7.4h3.1V18.5z
				 M33.4,17.5h1.1v-5.4h-1.1V17.5z M18.9,16.2c-1,0-1.8-0.3-2.6-1c-0.7-0.7-1.1-1.6-1.1-2.7c0-1,0.3-1.8,1-2.6
				c0.8-0.8,1.6-1.2,2.7-1.2s1.9,0.4,2.7,1.1c0.7,0.7,1.1,1.7,1.1,2.7c0,1-0.4,1.9-1.1,2.7C20.9,15.8,20,16.2,18.9,16.2z M18.9,9.7
				c-0.8,0-1.3,0.2-1.9,0.9c-0.5,0.6-0.8,1.2-0.8,1.9c0,0.8,0.3,1.5,0.8,1.9c0.6,0.5,1.2,0.8,1.9,0.8c0.8,0,1.5-0.3,1.9-0.8
				c0.6-0.6,0.9-1.2,0.9-1.9c0-0.7-0.3-1.4-0.9-1.9C20.2,9.9,19.7,9.7,18.9,9.7z M35.5,10h-3.1V2.7h3.1V10z M33.4,9h1.1V3.7h-1.1V9z
				"/>
		</g>
	</g>
</g>
</svg>
