<?xml version="1.0" encoding="utf-8"?>
<!-- Generator: Adobe Illustrator 24.0.1, SVG Export Plug-In . SVG Version: 6.00 Build 0)  -->
<svg version="1.1" id="Camada_1" xmlns="http://www.w3.org/2000/svg" xmlns:xlink="http://www.w3.org/1999/xlink" x="0px" y="0px"
	 viewBox="0 0 35.5 35.5" style="enable-background:new 0 0 35.5 35.5;" xml:space="preserve">
<style type="text/css">
	.st0{enable-background:new    ;}
	.st1{fill:none;stroke:#0177FB;stroke-miterlimit:10;}
</style>
<title>conteudo</title>
<g id="Camada_2_1_">
	<g id="Camada_1-2">
		<g class="st0">
			<path class="st1" d="M33.9,3.3c0.4,0.4,0.6,0.9,0.6,1.5v27.6c0,0.6-0.2,1.1-0.6,1.5c-0.4,0.4-0.9,0.6-1.5,0.6H4.8
				c-0.6,0-1.1-0.2-1.5-0.6c-0.4-0.4-0.6-0.9-0.6-1.5V4.8c0-0.6,0.2-1.1,0.6-1.5c0.4-0.4,0.9-0.6,1.5-0.6h27.6
				C32.9,2.6,33.4,2.8,33.9,3.3z M32.4,4.8H4.8v27.6h27.6V4.8z M9.3,13C9.1,12.8,9,12.5,9,12.2c0-0.3,0.1-0.6,0.3-0.8
				s0.5-0.3,0.8-0.3h17c0.3,0,0.6,0.1,0.8,0.3s0.3,0.5,0.3,0.8c0,0.3-0.1,0.6-0.3,0.8s-0.5,0.3-0.8,0.3h-17
				C9.8,13.3,9.5,13.2,9.3,13z M9.3,19.3C9.1,19.1,9,18.9,9,18.6c0-0.3,0.1-0.6,0.3-0.8s0.5-0.3,0.8-0.3h17c0.3,0,0.6,0.1,0.8,0.3
				s0.3,0.5,0.3,0.8c0,0.3-0.1,0.6-0.3,0.8s-0.5,0.3-0.8,0.3h-17C9.8,19.6,9.5,19.5,9.3,19.3z M9.3,25.7C9.1,25.5,9,25.3,9,24.9
				c0-0.3,0.1-0.6,0.3-0.8s0.5-0.3,0.8-0.3h17c0.3,0,0.6,0.1,0.8,0.3s0.3,0.5,0.3,0.8c0,0.3-0.1,0.6-0.3,0.8S27.4,26,27.1,26h-17
				C9.8,26,9.5,25.9,9.3,25.7z"/>
		</g>
	</g>
</g>
</svg>
