<?xml version="1.0" encoding="utf-8"?>
<!-- Generator: Adobe Illustrator 24.0.1, SVG Export Plug-In . SVG Version: 6.00 Build 0)  -->
<svg version="1.1" id="Camada_1" xmlns="http://www.w3.org/2000/svg" xmlns:xlink="http://www.w3.org/1999/xlink" x="0px" y="0px"
	 viewBox="0 0 36 36" style="enable-background:new 0 0 36 36;" xml:space="preserve">
<style type="text/css">
	.st0{enable-background:new    ;}
	.st1{fill:none;stroke:#0177FB;stroke-miterlimit:10;}
</style>
<title>objetos</title>
<g id="Camada_2_1_">
	<g id="Camada_1-2">
		<g class="st0">
			<path class="st1" d="M34.4,8C34.8,8.5,35,9,35,9.5v23.4c0,0.6-0.2,1.1-0.6,1.5c-0.4,0.4-0.9,0.6-1.5,0.6H7.4
				c-0.6,0-1.1-0.2-1.5-0.6c-0.4-0.4-0.6-0.9-0.6-1.5v-4.3H3.1c-0.6,0-1.1-0.2-1.5-0.6C1.2,27.6,1,27.1,1,26.5V3.2
				c0-0.6,0.2-1.1,0.6-1.5C2.1,1.2,2.5,1,3.1,1h25.5c0.6,0,1.1,0.2,1.5,0.6c0.4,0.4,0.6,0.9,0.6,1.5v4.3h2.1
				C33.4,7.4,33.9,7.6,34.4,8z M28.6,26.5V3.2H3.1v23.4H28.6z M18,18l8.5-4.3v6.4v2.1v2.1h-2.1h-17H5.3v-2.1v-2.1v-4.3l6.4-4.3
				L18,18z M32.9,9.5h-2.1v10.6v6.4v2.1v2.1h-2.1h-17H9.5v-2.1H7.4v4.3h25.5V9.5z M19.7,6.7c0.8,0,1.5,0.3,2.1,0.9
				c0.6,0.6,0.9,1.3,0.9,2.1s-0.3,1.5-0.9,2.1c-0.6,0.6-1.3,0.9-2.1,0.9c-0.8,0-1.5-0.3-2.1-0.9c-0.6-0.6-0.9-1.3-0.9-2.1
				s0.3-1.5,0.9-2.1C18.2,7,18.9,6.7,19.7,6.7z"/>
		</g>
	</g>
</g>
</svg>
