<?xml version="1.0" encoding="utf-8"?>
<!-- Generator: Adobe Illustrator 23.0.0, SVG Export Plug-In . SVG Version: 6.00 Build 0)  -->
<svg version="1.1" id="Camada_1" xmlns="http://www.w3.org/2000/svg" xmlns:xlink="http://www.w3.org/1999/xlink" x="0px" y="0px"
	 viewBox="0 0 46.5 46.5" style="enable-background:new 0 0 46.5 46.5;" xml:space="preserve">
<style type="text/css">
	.st0{fill:#0177FB;}
</style>
<title>objeto</title>
<g>
	<g id="Camada_1-2">
		<path class="st0" d="M23.2,0C10.4,0,0,10.4,0,23.2c0,12.8,10.4,23.2,23.2,23.2s23.2-10.4,23.2-23.2C46.5,10.4,36.1,0,23.2,0z
			 M23.2,38.9c-8.7,0-15.7-7-15.7-15.7s7-15.7,15.7-15.7S39,14.6,39,23.2S31.9,38.9,23.2,38.9z"/>
		<path class="st0" d="M30.3,21.5c-0.2-0.5-0.6-0.9-1.2-0.9h-3.6l-1.1-3.4c-0.2-0.5-0.6-0.9-1.2-0.9l0,0c-0.5,0-1,0.3-1.2,0.9
			L21,20.7h-3.6c-0.7,0-1.2,0.6-1.2,1.3c0,0.4,0.2,0.8,0.5,1l2.9,2.1l-1.1,3.4c-0.2,0.5,0,1.1,0.5,1.4c0.2,0.2,0.5,0.2,0.7,0.2
			c0.3,0,0.5-0.1,0.7-0.2l2.9-2.1l2.9,2.1c0.6,0.4,1.3,0.3,1.7-0.3c0.2-0.3,0.3-0.7,0.2-1.1L27,25l2.9-2.1
			C30.3,22.6,30.5,22,30.3,21.5L30.3,21.5z"/>
	</g>
</g>
</svg>
