<?xml version="1.0" encoding="utf-8"?>
<!-- Generator: Adobe Illustrator 24.0.1, SVG Export Plug-In . SVG Version: 6.00 Build 0)  -->
<svg version="1.1" id="Camada_1" xmlns="http://www.w3.org/2000/svg" xmlns:xlink="http://www.w3.org/1999/xlink" x="0px" y="0px"
	 viewBox="0 0 36 35.1" style="enable-background:new 0 0 36 35.1;" xml:space="preserve">
<style type="text/css">
	.st0{enable-background:new    ;}
	.st1{fill:none;stroke:#0177FB;stroke-miterlimit:10;}
</style>
<title>plataforma</title>
<g id="Camada_2_1_">
	<g id="Camada_1-2">
		<g class="st0">
			<path class="st1" d="M34.4,3.3C34.8,3.7,35,4.2,35,4.8v19.1c0,0.6-0.2,1.1-0.6,1.5c-0.4,0.4-0.9,0.6-1.5,0.6H22.3
				c0,2.3,0.2,3.7,0.7,4.3h0.4c0.3,0,0.6,0.1,0.8,0.3s0.3,0.5,0.3,0.8c0,0.3-0.1,0.6-0.3,0.8s-0.5,0.3-0.8,0.3H12.7
				c-0.3,0-0.6-0.1-0.8-0.3s-0.3-0.5-0.3-0.8c0-0.3,0.1-0.6,0.3-0.8s0.5-0.3,0.8-0.3h0.4c0.4-0.5,0.7-1.9,0.7-4.3H3.1
				c-0.6,0-1.1-0.2-1.5-0.6C1.2,25,1,24.5,1,23.9V4.8c0-0.6,0.2-1.1,0.6-1.5c0.4-0.4,0.9-0.6,1.5-0.6h29.8
				C33.4,2.6,33.9,2.8,34.4,3.3z M32.9,4.8H3.1v17h29.8V4.8z"/>
		</g>
	</g>
</g>
</svg>
