<svg xmlns="http://www.w3.org/2000/svg" viewBox="0 0 122.8 30.75"><defs><style>.cls-1{fill:#d7d8dc;}.cls-2,.cls-3{fill:none;stroke:#e4e4e4;stroke-miterlimit:22.93;}.cls-2{stroke-width:0px;}.cls-3{stroke-width:0.03px;}.cls-4{fill:#09130a;}.cls-10,.cls-11,.cls-12,.cls-13,.cls-14,.cls-15,.cls-4,.cls-5,.cls-6,.cls-7,.cls-8,.cls-9{fill-rule:evenodd;}.cls-5{fill:#0b160d;}.cls-6{fill:#005a5a;}.cls-7{fill:#003d3b;}.cls-8{fill:#004b4d;}.cls-9{fill:#006568;}.cls-10{fill:#0b211b;}.cls-11{fill:#0d211b;}.cls-12{fill:#005f61;}.cls-13{fill:#007075;}.cls-14{fill:#103532;}.cls-15{fill:#162c26;}</style></defs><title>3ds</title><g id="Camada_2" data-name="Camada 2"><g id="Camada_1-2" data-name="Camada 1"><path class="cls-1" d="M41.4,21.58a9.94,9.94,0,0,0,3.32.51c2.71,0,5.34-1.21,5.34-4.12A3,3,0,0,0,47.15,15,3.11,3.11,0,0,0,49.81,12c0-2.5-2.38-3.3-4.66-3.3a10.5,10.5,0,0,0-3.4.57l.12,1.6a8.16,8.16,0,0,1,3-.62c1.41,0,2.87.44,2.87,1.93,0,1.69-1.35,2.22-3.16,2.22H43.1v1.46h1.71c1.56,0,3.11.47,3.11,2.13s-1.51,2.54-3.22,2.54a8.68,8.68,0,0,1-3.18-.59l-.12,1.68ZM55.13,10.44h1.66c3.07,0,4.65,1.76,4.65,4.74,0,3.45-1.88,5.11-5.23,5.11H55.13V10.44Zm1.29,11.43c4.29,0,7.24-2.16,7.24-6.69,0-4.27-2.46-6.32-6.65-6.32H53v13Zm9.27-.31a10.91,10.91,0,0,0,3.34.53c2.49,0,4.5-1.21,4.5-3.87,0-2-1.21-2.82-2.75-3.55l-1.07-.48c-1-.47-1.82-.94-1.82-2,0-1.45,1.25-1.92,2.35-1.92a7,7,0,0,1,2.71.53l.11-1.72a10.09,10.09,0,0,0-2.94-.41c-2,0-4.27,1.06-4.27,3.63a3.41,3.41,0,0,0,2.32,3.22l1,.49c1.21.57,2.25,1.11,2.25,2.34,0,1.56-1.25,2.15-2.5,2.15a6.49,6.49,0,0,1-3.14-.74l-.1,1.81Zm17.83.31V10.38l4.29,11.49h1.94L94,10.38V21.87h2v-13H92.81l-4,10.69-4-10.69h-3.2v13Zm16.16,0L101,18.46h6l1.25,3.41h2.23l-5.12-13h-2.67l-5.07,13ZM104,10.36l2.48,6.54h-5l2.5-6.54Zm8.93,11.51,3.75-5.64,3.61,5.64h2.52l-4.75-6.81,4.34-6.2H120.1l-3.27,5-3.32-5h-2.44l4.31,6.2-4.78,6.81Z"/><line class="cls-1" x1="32.6" x2="32.6" y2="30.75"/><path class="cls-2" d="M10.37,6.28l6.26-6h-14l-2.62,6,10.32,0ZM.05,6.24,7.44,9.05l2.93-2.77m0,3.91L7.44,9.05.5,15.49l6.79,6.28,3-1.19,0-14.3m0,0,13.8,9L16.63.27m7.54,15.05L10.35,10.19m0,10.39,0,4m6.37,5.92L7.29,21.77,0,24.51l2.65,6Zm0,0,7.52-15.16L10.28,24.56m13.89-9.24L10.32,20.58"/><line class="cls-3" x1="10.28" y1="24.56" y2="24.51"/><polygon class="cls-4" points="10.35 10.19 24.17 15.31 10.37 6.28 10.35 10.19 10.35 10.19"/><polygon class="cls-5" points="24.17 15.31 10.31 20.58 10.28 24.56 10.28 24.56 24.17 15.31 24.17 15.31"/><polygon class="cls-6" points="10.37 6.28 24.17 15.31 16.63 0.27 10.37 6.28 10.37 6.28"/><polygon class="cls-7" points="24.17 15.31 10.28 24.56 16.65 30.48 24.17 15.31 24.17 15.31"/><polygon class="cls-8" points="10.31 20.58 24.17 15.31 10.35 10.19 10.31 20.58 10.31 20.58"/><polygon class="cls-9" points="10.31 20.58 10.35 10.19 7.44 9.05 0.5 15.49 7.29 21.77 10.31 20.58 10.31 20.58"/><polygon class="cls-10" points="7.44 9.05 10.35 10.19 10.37 6.28 7.44 9.05 7.44 9.05"/><polygon class="cls-11" points="10.31 20.58 7.29 21.77 10.28 24.56 10.31 20.58 10.31 20.58"/><polygon class="cls-12" points="10.28 24.56 0 24.51 2.65 30.48 16.65 30.48 10.28 24.56 10.28 24.56 10.28 24.56"/><polygon class="cls-13" points="0.06 6.24 10.37 6.28 16.63 0.27 2.67 0.27 0.06 6.24 0.06 6.24"/><polygon class="cls-14" points="10.37 6.28 0.06 6.24 7.44 9.05 10.37 6.28 10.37 6.28"/><polygon class="cls-15" points="7.29 21.77 0 24.51 10.28 24.56 10.28 24.56 7.29 21.77 7.29 21.77"/></g></g></svg>