<svg xmlns="http://www.w3.org/2000/svg" xmlns:xlink="http://www.w3.org/1999/xlink" viewBox="0 0 113.87 28.66"><defs><style>.cls-1{fill:none;}.cls-2{fill:#d7d8dc;}.cls-3{fill:#e12f2b;}.cls-4{clip-path:url(#clip-path);}.cls-5{fill:url(#Gradiente_sem_nome_9);}.cls-6{clip-path:url(#clip-path-2);}.cls-7{fill:url(#Gradiente_sem_nome_2);}.cls-8{clip-path:url(#clip-path-3);}.cls-9{fill:url(#Gradiente_sem_nome_3);}.cls-10{clip-path:url(#clip-path-4);}.cls-11{fill:url(#Gradiente_sem_nome_5);}.cls-12{clip-path:url(#clip-path-5);}.cls-13{fill:url(#Gradiente_sem_nome_5-2);}.cls-14{clip-path:url(#clip-path-6);}.cls-15{fill:url(#Gradiente_sem_nome_6);}.cls-16{fill:#e23732;}.cls-17{clip-path:url(#clip-path-7);}.cls-18{fill:url(#Gradiente_sem_nome_7);}.cls-19{clip-path:url(#clip-path-8);}.cls-20{fill:url(#Gradiente_sem_nome_8);}.cls-21{fill:#e7766e;}</style><clipPath id="clip-path"><path class="cls-1" d="M12.69,4.05c-.39.69-6.12,12.42-7,14h0C7,17.29,8,16.51,9.8,15.54h0c.53-1.47,1.49-3.76,2.73-7.28h0c.23-.65.66-.71.92-.08h0c.19.44.88,2.32,1.66,4.49h0c.82-.42,1.19-.66,1.91-1.06h0c-.81-1.81-3.31-7-3.61-7.48h0c-.18-.27-.26-.5-.37-.5h0c-.08,0-.18.12-.35.42"/></clipPath><radialGradient id="Gradiente_sem_nome_9" cx="-481.87" cy="531.17" r="0.29" gradientTransform="matrix(-29.85, 77.34, -55.9, -21.58, 15320.95, 48732.69)" gradientUnits="userSpaceOnUse"><stop offset="0" stop-color="#772326"/><stop offset="0.08" stop-color="#772326"/><stop offset="0.74" stop-color="#eb827e"/><stop offset="1" stop-color="#eb827e"/></radialGradient><clipPath id="clip-path-2"><path class="cls-1" d="M3.82,22.57l0,.08h0c-.36.94-1.77,4.53-2.13,5.78h0L5,28.66c.36-1,1.42-3.85,2.59-6.84h0c-1.32.22-2.31.47-3.74.75"/></clipPath><radialGradient id="Gradiente_sem_nome_2" cx="-482.28" cy="530.86" r="0.29" gradientTransform="matrix(-30.49, 75.92, -53.63, -21.54, 13777.03, 48063.72)" gradientUnits="userSpaceOnUse"><stop offset="0" stop-color="#873531"/><stop offset="0" stop-color="#873531"/><stop offset="0.07" stop-color="#873531"/><stop offset="0.61" stop-color="#eb827e"/><stop offset="1" stop-color="#eb827e"/></radialGradient><clipPath id="clip-path-3"><path class="cls-1" d="M17.85,20.38c1.26,3.15,2.55,6.42,3.17,8.2h0l3.43-.27h0c-.14-.45-.5-1.56-.9-2.51h0c-.52-1.22-2.22-4.68-2.58-5.5h0c0-.06-.06-.14-.11-.25h0c-1,.09-1.72.2-3,.34"/></clipPath><radialGradient id="Gradiente_sem_nome_3" cx="-478.59" cy="534.22" r="0.29" gradientTransform="matrix(21.8, 80.66, -59.46, 16.07, 42212.39, 30031.27)" gradientUnits="userSpaceOnUse"><stop offset="0" stop-color="#873531"/><stop offset="0" stop-color="#873531"/><stop offset="0.29" stop-color="#873531"/><stop offset="0.87" stop-color="#eb827e"/><stop offset="1" stop-color="#eb827e"/></radialGradient><clipPath id="clip-path-4"><path class="cls-1" d="M7.56,21.82c-1.17,3-2.23,5.85-2.59,6.84H5l2.35-1.45s.08-3.15.2-3.62h0c0-.19.19-.94.36-1.83H8l-.39.06"/></clipPath><linearGradient id="Gradiente_sem_nome_5" x1="-473.83" y1="533.07" x2="-473.53" y2="533.07" gradientTransform="translate(32067.26 9688.15) rotate(65.15) scale(46.96)" gradientUnits="userSpaceOnUse"><stop offset="0" stop-color="#5b2023"/><stop offset="0.96" stop-color="#ce2f33"/><stop offset="1" stop-color="#ce2f33"/></linearGradient><clipPath id="clip-path-5"><path class="cls-1" d="M17.77,20.39A42,42,0,0,1,19,24.93h0a13.47,13.47,0,0,1,.28,2.43h0L21,28.58c-.62-1.78-1.91-5-3.17-8.2h-.08"/></clipPath><linearGradient id="Gradiente_sem_nome_5-2" x1="-489.21" y1="545.95" x2="-488.92" y2="545.95" gradientTransform="translate(-37658.48 -16217.65) rotate(-108.53) scale(55.98)" xlink:href="#Gradiente_sem_nome_5"/><clipPath id="clip-path-6"><path class="cls-1" d="M9.76,0A79.26,79.26,0,0,0,5.11,10.38h0c-.81,2.36-2,5.85-3,9.12h0l-.36,1.28h0c-.16.59-.33,1.17-.48,1.73h0c.07-.11.3-.75.69-1.82H2l.55-1.44h0A147.51,147.51,0,0,1,11.48,0H9.76Z"/></clipPath><linearGradient id="Gradiente_sem_nome_6" x1="-483.17" y1="534.89" x2="-482.88" y2="534.89" gradientTransform="translate(16720.71 75136.33) rotate(125.37) scale(106.79)" gradientUnits="userSpaceOnUse"><stop offset="0" stop-color="#e12f2b"/><stop offset="0.31" stop-color="#9e2d31"/><stop offset="0.44" stop-color="#9e2d31"/><stop offset="0.98" stop-color="#752123"/><stop offset="1" stop-color="#752123"/></linearGradient><clipPath id="clip-path-7"><path class="cls-1" d="M11.48,0a147.51,147.51,0,0,0-9,19.25h0L2,20.69H2c-.39,1.07-.62,1.71-.69,1.82h0l-.09.34h0c-.6,2.22-1.06,4-1.2,4.87H0l1.62.71h0c.36-1.25,1.77-4.84,2.13-5.78h0l0-.08h0c.24-.63.64-1.57,1-2.48h0a85,85,0,0,1,14.07-4.27h0c.81,1.74,1.68,3.5,2,4.22h0c.05.11.09.19.11.25h0c.36.82,2.06,4.28,2.58,5.5h0c.4.95.76,2.06.9,2.51h0L26,27.8s-.4-1.61-.56-2.05h0c-.06-.17-.29-1-.62-2.26h0c-.41-1.19-.84-2.39-1.3-3.58h0c-.56-1.48-1.15-3-1.76-4.39h0c-.67-1.61-1.35-3.17-2-4.65h0C17.43,5.68,15.27,1.49,14.48,0h-3Zm1.21,4.05c.18-.33.42-.42.72.08h0c.27.44,2.79,5.66,3.61,7.48h0c-.81.41-9.52,5-11.33,6.46h0c.87-1.58,6.62-13.3,7-14m6.18,11.77ZM5.69,18.07s-.61,1.27-.88,2h0a21,21,0,0,1,.88-2"/></clipPath><radialGradient id="Gradiente_sem_nome_7" cx="-479.98" cy="535.62" r="0.29" gradientTransform="matrix(30.12, 119.24, -78.82, 19.91, 56692.33, 46573.92)" gradientUnits="userSpaceOnUse"><stop offset="0" stop-color="#e12f2b"/><stop offset="0.74" stop-color="#a32521"/><stop offset="0.95" stop-color="#852122"/><stop offset="1" stop-color="#852122"/></radialGradient><clipPath id="clip-path-8"><path class="cls-1" d="M4.8,20.09c-.34.9-.73,1.83-1,2.48h0c1.43-.28,2.42-.53,3.74-.75h0L8,21.76H8c3.81-.64,7.13-1.08,9.82-1.37h.08c1.31-.14,2-.25,3-.34h0c-.33-.72-1.2-2.48-2-4.22h0A71.73,71.73,0,0,0,4.8,20.09"/></clipPath><linearGradient id="Gradiente_sem_nome_8" x1="-478.37" y1="543.43" x2="-478.08" y2="543.43" gradientTransform="matrix(91.41, -14.22, 14.22, 91.41, 35999.03, -56459.78)" gradientUnits="userSpaceOnUse"><stop offset="0" stop-color="#5b2023"/><stop offset="0.25" stop-color="#852122"/><stop offset="0.48" stop-color="#a32521"/><stop offset="0.77" stop-color="#a32521"/><stop offset="1" stop-color="#e12f2b"/></linearGradient></defs><title>autocad</title><g id="Camada_2" data-name="Camada 2"><g id="Camada_1-2" data-name="Camada 1"><g id="layer1"><g id="g748"><path id="path750" class="cls-2" d="M38.65,15.36h3.19L40.23,9.68Zm3.71,1.75h-4.2l-.92,3.19H35L38.75,8.16h3l3.9,12.14H43.37Z"/></g><g id="g752"><path id="path754" class="cls-2" d="M56.59,8.16V20.3H54.65l-.12-1.13a4.48,4.48,0,0,1-3.31,1.36c-2.64,0-4-1.79-4-4.15V8.16h2.19v8.31c0,1.39.6,2.37,2.27,2.37a3.25,3.25,0,0,0,2.69-1.37V8.16Z"/></g><g id="g756"><path id="path758" class="cls-2" d="M67.84,9.84h-3.4V20.3H62.25V9.84H58.83V8.16h9Z"/></g><g id="g760"><path id="path762" class="cls-2" d="M71.6,12.86v2.77c0,1.91.88,3.21,2.79,3.21s2.79-1.3,2.79-3.21V12.86c0-2-.9-3.24-2.79-3.24S71.6,10.9,71.6,12.86m7.79,0V15.6c0,2.83-1.65,4.93-5,4.93a4.58,4.58,0,0,1-5-4.93V12.88c0-2.87,1.65-5,5-5s5,2.08,5,5"/></g><g id="g764"><path id="path766" class="cls-2" d="M81.76,16V12.46a4.28,4.28,0,0,1,4.67-4.53c2.84,0,4.26,1.63,4.32,3.75H88.68a2,2,0,0,0-2.25-2.06c-1.6,0-2.45,1.09-2.45,2.7v3.82c0,1.61.85,2.69,2.41,2.69s2.26-.78,2.33-2.09H90.8c-.17,2.24-1.53,3.79-4.46,3.79A4.29,4.29,0,0,1,81.76,16"/></g><g id="g768"><path id="path770" class="cls-2" d="M95.72,15.36h3.2L97.3,9.68Zm3.72,1.75h-4.2l-.92,3.19h-2.2L95.83,8.16h3l3.9,12.14h-2.26Z"/></g><g id="g772"><path id="path774" class="cls-2" d="M111.68,13c0-2-.93-3.12-2.86-3.12h-1.68v8.78h1.37c2.11,0,3.17-1.11,3.17-3.42Zm2.19.06v2.15c0,3.15-1.88,5.13-5.38,5.13H105V8.16h4c3.3,0,5,1.94,5,4.86"/></g><g id="g476"><g id="g478"><g id="g484"><path id="path486" class="cls-3" d="M13,7.61c-.14,0-.41.07-.6.6-.8,2.27-1.45,3.93-2,5.27-.28.72-.52,1.33-.71,1.86l-.12.33.31-.17.57-.32c1.51-.82,3-1.57,4.34-2.23l.34-.16.11,0,0-.12c-.8-2.21-1.49-4.06-1.67-4.49s-.43-.52-.56-.52M1.64,28.3l-1.5-.66c.15-.83.57-2.5,1.18-4.75l.09-.34c.15-.55.31-1.14.48-1.74l.36-1.28c.82-2.85,1.88-5.92,2.65-8.16.12-.33.22-.65.33-.95A79.61,79.61,0,0,1,9.83.13H16A56.08,56.08,0,0,1,19.48,7.4c.06.16.13.32.2.48.32.76.69,1.62,1,2.56.22.63.47,1.28.74,2,.38,1,.78,2,1.07,3,.4,1.35.81,2.81,1.26,4.47.38,1.38.71,2.61,1,3.61.33,1.25.55,2.08.62,2.27.14.35.43,1.53.53,1.91l-1.47.47h0l-3.36.27-1.7-1.15a14.64,14.64,0,0,0-.28-2.4,44,44,0,0,0-1.18-4.55l0-.1h-.11c-3.18.35-6.49.81-9.83,1.37H7.83l0,.09c-.06.35-.13.69-.18,1s-.14.74-.17.86c-.11.44-.19,3.09-.2,3.57L5,28.53Z"/></g></g></g><g id="g488"><g class="cls-4"><g id="g490"><g id="g496"><g id="g498"><path id="path510" class="cls-5" d="M12.69,4.05c-.39.69-6.12,12.42-7,14h0C7,17.29,8,16.51,9.8,15.54h0c.53-1.47,1.49-3.76,2.73-7.28h0c.23-.65.66-.71.92-.08h0c.19.44.88,2.32,1.66,4.49h0c.82-.42,1.19-.66,1.91-1.06h0c-.81-1.81-3.31-7-3.61-7.48h0c-.18-.27-.26-.5-.37-.5h0c-.08,0-.18.12-.35.42"/></g></g></g></g></g><g id="g512"><g class="cls-6"><g id="g514"><g id="g520"><g id="g522"><path id="path536" class="cls-7" d="M3.82,22.57l0,.08h0c-.36.94-1.77,4.53-2.13,5.78h0L5,28.66c.36-1,1.42-3.85,2.59-6.84h0c-1.32.22-2.31.47-3.74.75"/></g></g></g></g></g><g id="g538"><g class="cls-8"><g id="g540"><g id="g546"><g id="g548"><path id="path562" class="cls-9" d="M17.85,20.38c1.26,3.15,2.55,6.42,3.17,8.2h0l3.43-.27h0c-.14-.45-.5-1.56-.9-2.51h0c-.52-1.22-2.22-4.68-2.58-5.5h0c0-.06-.06-.14-.11-.25h0c-1,.09-1.72.2-3,.34"/></g></g></g></g></g><g id="g564"><g class="cls-10"><g id="g566"><g id="g572"><g id="g574"><path id="path584" class="cls-11" d="M7.56,21.82c-1.17,3-2.23,5.85-2.59,6.84H5l2.35-1.45s.08-3.15.2-3.62h0c0-.19.19-.94.36-1.83H8l-.39.06"/></g></g></g></g></g><g id="g586"><g class="cls-12"><g id="g588"><g id="g594"><g id="g596"><path id="path606" class="cls-13" d="M17.77,20.39A42,42,0,0,1,19,24.93h0a13.47,13.47,0,0,1,.28,2.43h0L21,28.58c-.62-1.78-1.91-5-3.17-8.2h-.08"/></g></g></g></g></g><g id="g608"><g class="cls-14"><g id="g610"><g id="g616"><g id="g618"><path id="path632" class="cls-15" d="M9.76,0A79.26,79.26,0,0,0,5.11,10.38h0c-.81,2.36-2,5.85-3,9.12h0l-.36,1.28h0c-.16.59-.33,1.17-.48,1.73h0c.07-.11.3-.75.69-1.82H2l.55-1.44h0A147.51,147.51,0,0,1,11.48,0H9.76Z"/></g></g></g></g></g><g id="g634"><g id="g636"><g id="g642"><path id="path644" class="cls-16" d="M23.89,19.88c-.39-1.4-.81-2.93-1.26-4.47-.51-1.73-1.3-3.47-1.82-5C20.43,9.25,20,8.2,19.6,7.35A52.62,52.62,0,0,0,16,0H14.48c.79,1.49,2.95,5.68,5.3,10.87.67,1.48,1.35,3,2,4.64.61,1.44,1.2,2.92,1.76,4.4.46,1.19.89,2.39,1.3,3.58-.26-1-.6-2.23-1-3.61"/></g></g></g><g id="g646"><g class="cls-17"><g id="g648"><g id="g654"><g id="g656"><path id="path668" class="cls-18" d="M11.48,0a147.51,147.51,0,0,0-9,19.25h0L2,20.69H2c-.39,1.07-.62,1.71-.69,1.82h0l-.09.34h0c-.6,2.22-1.06,4-1.2,4.87H0l1.62.71h0c.36-1.25,1.77-4.84,2.13-5.78h0l0-.08h0c.24-.63.64-1.57,1-2.48h0a85,85,0,0,1,14.07-4.27h0c.81,1.74,1.68,3.5,2,4.22h0c.05.11.09.19.11.25h0c.36.82,2.06,4.28,2.58,5.5h0c.4.95.76,2.06.9,2.51h0L26,27.8s-.4-1.61-.56-2.05h0c-.06-.17-.29-1-.62-2.26h0c-.41-1.19-.84-2.39-1.3-3.58h0c-.56-1.48-1.15-3-1.76-4.39h0c-.67-1.61-1.35-3.17-2-4.65h0C17.43,5.68,15.27,1.49,14.48,0h-3Zm1.21,4.05c.18-.33.42-.42.72.08h0c.27.44,2.79,5.66,3.61,7.48h0c-.81.41-9.52,5-11.33,6.46h0c.87-1.58,6.62-13.3,7-14m6.18,11.77ZM5.69,18.07s-.61,1.27-.88,2h0a21,21,0,0,1,.88-2"/></g></g></g></g></g><g id="g670"><g class="cls-19"><g id="g672"><g id="g678"><g id="g680"><path id="path694" class="cls-20" d="M4.8,20.09c-.34.9-.73,1.83-1,2.48h0c1.43-.28,2.42-.53,3.74-.75h0L8,21.76H8c3.81-.64,7.13-1.08,9.82-1.37h.08c1.31-.14,2-.25,3-.34h0c-.33-.72-1.2-2.48-2-4.22h0A71.73,71.73,0,0,0,4.8,20.09"/></g></g></g></g></g><g id="g698"><g id="g704"><path id="path706" class="cls-21" d="M5.82,18l.66-.46.34-.22.34-.22.68-.42c.23-.14.46-.28.7-.41l.69-.41.7-.4,1.4-.79c.94-.52,1.88-1,2.83-1.55l1.41-.77L17,11.56l0,.08-.39-.85-.4-.84c-.13-.28-.27-.56-.4-.83l-.41-.84L14.54,6.6l-.82-1.67-.2-.41-.1-.21-.06-.11v0h0l0,0A.7.7,0,0,0,13.18,4,.27.27,0,0,0,13,3.89a.3.3,0,0,0-.16.08.76.76,0,0,0-.13.17.08.08,0,0,0,0,.05l0,0,0,.1-.11.21L12.31,5l-.42.83L10.2,9.11c-.56,1.11-1.12,2.22-1.67,3.33l-.82,1.67c-.28.56-.55,1.11-.82,1.67s-.54,1.12-.8,1.68L5.3,19.15c-.26.56-.51,1.13-.76,1.7S4.05,22,3.82,22.57c.22-.59.45-1.16.69-1.73s.49-1.15.74-1.72c.12-.28.25-.56.38-.85L6,17.43c.26-.57.52-1.13.79-1.69s.53-1.12.8-1.68l.81-1.68,1.66-3.33,1.68-3.32.43-.83.21-.42.1-.2,0-.11,0,0,0-.06a1,1,0,0,1,.15-.2A.45.45,0,0,1,13,3.74l.15,0,.12.07a1.06,1.06,0,0,1,.17.2l0,0h0v0l.05.1.1.21.21.42.81,1.67.82,1.68.4.84.4.84.4.84.38.85,0,.05-.05,0-1.42.76-1.42.76c-1,.5-1.9,1-2.84,1.53l-.71.38-.7.39-.7.4-.7.4-.7.4-.69.41-.34.21-.34.22L5.82,18"/></g><g id="g708"><path id="path710" class="cls-21" d="M4.87,20.1l.85-.34.42-.17.22-.08.21-.09.86-.32.43-.16.43-.16.86-.31.87-.3.43-.15.44-.14.43-.15.44-.14.87-.27.88-.26.44-.13.44-.12.22-.06.22-.06.45-.12.44-.12.45-.11.44-.11.45-.1.45-.1.45-.1.9-.17h0l0,0L19.51,17l.59,1.25.3.62.3.62.14.31.15.32c.09.21.18.42.28.62.19.42.38.84.58,1.25l.29.63.3.62.29.63.29.62.28.63.27.63c-.1-.21-.19-.42-.29-.62L23,24.54l-.3-.62-.3-.62-.6-1.24-.6-1.24c-.1-.21-.2-.42-.29-.63l-.15-.31-.14-.31L20,18.33l-.6-1.24-.59-1.25.07,0-.9.17-.45.1-.44.1-.45.1-.44.11-.45.11-.44.11-.44.12-.23.06-.22.06L14,17l-.44.13-.88.25-.87.27-.44.14-.43.14-.44.14-.44.14-.87.29-.86.3L7.88,19l-.43.16-.87.31-.21.08-.22.08-.42.16Z"/></g></g></g></g></g></svg>