<svg xmlns="http://www.w3.org/2000/svg" viewBox="0 0 87.28 25.55"><defs><style>.cls-1{fill:none;stroke:#898f99;stroke-miterlimit:10;stroke-width:0.32px;}.cls-2{fill:#898f99;}.cls-3{fill:#417185;}.cls-4{fill:#949fae;}</style></defs><title>lumion</title><g id="Camada_2" data-name="Camada 2"><g id="Camada_1-2" data-name="Camada 1"><rect class="cls-1" x="0.16" y="0.16" width="19.88" height="25.23"/><path class="cls-2" d="M17.21,20.37l-.41-.24c-.24-.13-.4-.22-.63-.33a2.14,2.14,0,0,0-.72-.22,1.45,1.45,0,0,0-.36,0,1.36,1.36,0,0,0-.33.14,1.31,1.31,0,0,0-.28.24,1.23,1.23,0,0,0-.19.31,1.05,1.05,0,0,0-.06.24h3.14l-.09-.1-.07-.06"/><path class="cls-2" d="M5.91,20.26a5,5,0,0,0-.67-.15,2.58,2.58,0,0,0-.68,0l-.17,0-.16.05a1.79,1.79,0,0,0-.32.13c-.12.07-.25.14-.36.22H6.74l-.17-.06c-.23-.07-.44-.15-.66-.21"/><path class="cls-2" d="M18.91,14.43l-.72-.79a8.78,8.78,0,0,1-.69-.89l0-.06h0l0,0-.08-.12-.14-.25c-.09-.16-.17-.32-.25-.49a3.38,3.38,0,0,1-.58.25,1.1,1.1,0,0,1-.36.07.62.62,0,0,1-.19,0,.3.3,0,0,1-.16-.08.48.48,0,0,0,.35.07,1.31,1.31,0,0,0,.34-.09,5,5,0,0,0,.56-.3,5.71,5.71,0,0,1-.3-1,4.24,4.24,0,0,1-.09-1.12A2.6,2.6,0,0,1,16.59,9a2.74,2.74,0,0,1,.05-.28l.07-.25h0a1.23,1.23,0,0,1-.39.05,2,2,0,0,1-.75-.17A2.27,2.27,0,0,1,14.91,8a1.34,1.34,0,0,1-.34-.67,1.35,1.35,0,0,0,.36.65,2,2,0,0,0,1.36.53,1.13,1.13,0,0,0,.36-.06.32.32,0,0,0,.09,0c.09-.3.19-.6.29-.9s.13-.39.18-.59a3.42,3.42,0,0,0-.35-1.11,3,3,0,0,0-.82-1,4.25,4.25,0,0,1-.5-.44,1.76,1.76,0,0,1-.37-.56,1.78,1.78,0,0,1-.12-.65c0-.22,0-.44,0-.66a4.85,4.85,0,0,0,0,.66,1.74,1.74,0,0,0,.13.64,1.68,1.68,0,0,0,.37.54,5.17,5.17,0,0,0,.51.42,3,3,0,0,1,.87,1,4.12,4.12,0,0,1,.33.87s0-.1,0-.14a2.75,2.75,0,0,0,0-1,3.17,3.17,0,0,0-.17-.49c-.07-.16-.14-.33-.22-.49a5.57,5.57,0,0,0-.52-.92,5.28,5.28,0,0,1,.59.89c.09.15.17.31.25.47s.1.2.14.3a1,1,0,0,0,.29-.43,4.4,4.4,0,0,0,.18-.62A2.91,2.91,0,0,1,18,3.51a.79.79,0,0,1,.2-.25.54.54,0,0,1,.29-.15.56.56,0,0,0-.28.16.83.83,0,0,0-.19.26,2.58,2.58,0,0,0-.17.62,4.94,4.94,0,0,1-.15.64,1.77,1.77,0,0,1-.15.31.93.93,0,0,1-.19.21l0,.08a2.62,2.62,0,0,1,.12.54,3.37,3.37,0,0,1,0,.55,7.49,7.49,0,0,1-.2,1.07c-.09.34-.19.69-.25,1l0,.26c0,.08,0,.16,0,.25a4.13,4.13,0,0,0,0,.5,4.19,4.19,0,0,0,.53,1.92,3.91,3.91,0,0,0,.26.44c0,.07.09.14.14.21a.86.86,0,0,1,.07.1l.09.11a5.94,5.94,0,0,0,.63.71s0-.07,0-.11a4.18,4.18,0,0,1,.28-.56l.24-.42V8.07a1.11,1.11,0,0,0-.07-.16c-.15-.37-.31-.74-.47-1.11a11.1,11.1,0,0,1-.39-1.15,3.68,3.68,0,0,1-.12-1.19,3.63,3.63,0,0,0,.17,1.18,8.36,8.36,0,0,0,.43,1.12c.11.24.22.47.32.7a3.4,3.4,0,0,1,0-.45,2.88,2.88,0,0,1,.06-.59,2.47,2.47,0,0,1,.1-.29V.94H.92V20.53H3.43a4.27,4.27,0,0,1,.44-.3,1.66,1.66,0,0,1,.33-.15L4.37,20l.17,0a2.82,2.82,0,0,1,.71,0,5.38,5.38,0,0,1,.7.12l.6.17,0-.05c-.12-.11-.24-.22-.35-.34a1,1,0,0,1-.15-.2.92.92,0,0,1-.09-.23,1.35,1.35,0,0,1,0-.49,1.29,1.29,0,0,0,0,.48.88.88,0,0,0,.1.22.9.9,0,0,0,.15.18l.37.32a1.45,1.45,0,0,1,.18.17l.2.05,0,0H7l.08,0,.17.05.16.05H14.1a1.27,1.27,0,0,1,.06-.28,1.09,1.09,0,0,1,.19-.37,1.22,1.22,0,0,1,.31-.29A1.5,1.5,0,0,1,15,19.4a1.88,1.88,0,0,1,.33,0l-.21-.05a4.18,4.18,0,0,0-1.22-.11c-.42,0-.84.08-1.27.14s-.85.1-1.28.11h-.33l-.33,0-.63-.13a3.36,3.36,0,0,0-.63-.06,1.63,1.63,0,0,0-.31,0,1.08,1.08,0,0,0-.29.13.89.89,0,0,1,.29-.15,1.12,1.12,0,0,1,.31,0,2.84,2.84,0,0,1,.65,0c.21,0,.42.06.63.09a1.61,1.61,0,0,0,.31,0h.32c.85-.07,1.67-.3,2.53-.4a4.23,4.23,0,0,1,1.33,0,5,5,0,0,1,1.27.38l.13.05c-.08-.08-.15-.17-.24-.25a7.26,7.26,0,0,0-1.21-.95c-.22-.14-.44-.28-.68-.41s-.48-.28-.72-.44-.34-.24-.5-.37a7.37,7.37,0,0,0-1.21.18c-.45.1-.91.23-1.38.35a9.75,9.75,0,0,1-1.45.25,4.57,4.57,0,0,1-.74,0l-.37,0-.09,0H8l-.18,0-.7-.18a4.11,4.11,0,0,0-.68-.14,2.23,2.23,0,0,0-.68,0l-.33.1-.17.07-.17.06a5.68,5.68,0,0,1-1.4.32c-.48.07-.95.12-1.42.23a11.41,11.41,0,0,1,1.41-.3A6.25,6.25,0,0,0,5,17.42l.16-.07.17-.08a2.86,2.86,0,0,1,.35-.12,2.28,2.28,0,0,1,.74-.09l.37,0c-.16-.1-.32-.2-.47-.31-.41-.29-.78-.61-1.2-.87l-1.26-.77a11.42,11.42,0,0,1-1.21-.85,12.48,12.48,0,0,0,1.22.83l1.28.74c.43.25.81.57,1.22.84a5,5,0,0,0,.63.38l.19.08c.22,0,.43.1.65.13l.17,0h.18c.11,0,.22,0,.34,0a5.32,5.32,0,0,0,.69,0A8.13,8.13,0,0,0,10.58,17l.13,0L10,16.52a5.41,5.41,0,0,1-1-.78l-.45-.44A5.87,5.87,0,0,0,8,14.89a2.2,2.2,0,0,0-.51-.3,1.52,1.52,0,0,0-.28-.09l-.05.13c.06.09,0,.23-.24.44a1.29,1.29,0,0,1-.64.23,1.28,1.28,0,0,1,.38-.56c.24-.19.38-.21.46-.15l0-.1-.25-.05H6.3l-.63,0A1.68,1.68,0,0,1,5,14.21l-.14-.08-.07-.05-.07,0-.25-.19A6.91,6.91,0,0,1,3.59,13a5.57,5.57,0,0,1-.74-1,5.2,5.2,0,0,0,.77,1,6.74,6.74,0,0,0,1,.82,2,2,0,0,0,.25.18l.07,0L5,14l.14.08a1.64,1.64,0,0,0,.59.13,4.28,4.28,0,0,0,.62,0h0v-.12c-.09,0-.2-.07-.34-.31a1.24,1.24,0,0,1-.15-.66,1.29,1.29,0,0,1,.51.45c.17.3.15.44.05.5h0v.13h.55a2.91,2.91,0,0,1,.64.13,2.7,2.7,0,0,1,.58.31l.5.41.46.43a5,5,0,0,0,1,.7c.34.19.7.38,1,.6l.81-.25c.23-.07.47-.13.71-.18h.08a3,3,0,0,1-.22-.28,3.78,3.78,0,0,1-.44-.75,4.8,4.8,0,0,1-.29-.8l0-.09,0-.05v-.06l-.05-.2c0-.13-.07-.26-.1-.4a2,2,0,0,1,0-.26,4.21,4.21,0,0,1-1-.3c-.31-.14-.61-.3-.9-.45a8,8,0,0,0-.89-.42,3,3,0,0,0-1-.19H7.62l-.26,0a2.78,2.78,0,0,1-.5-.11,4,4,0,0,1-.92-.42,3.63,3.63,0,0,1-.76-.65,2.35,2.35,0,0,1-.47-.88,2.28,2.28,0,0,0,.5.85,3.25,3.25,0,0,0,.78.6,3.29,3.29,0,0,0,.91.37,3.7,3.7,0,0,0,.48.09h.49a2.89,2.89,0,0,1,1,.16,6,6,0,0,1,.94.39c.3.14.6.28.9.4a3.55,3.55,0,0,0,.75.22,1.1,1.1,0,0,1,0-.18q-.06-.37-.09-.75a4.88,4.88,0,0,1-.79-.4,4.94,4.94,0,0,1-.75-.62A6.87,6.87,0,0,1,8.67,9.65l-.06-.11a1.63,1.63,0,0,1-.4.24,2.64,2.64,0,0,1-.56.11,2.1,2.1,0,0,1-.56-.07.88.88,0,0,1-.26-.12L6.6,9.54a1.07,1.07,0,0,0-.22-.15l-.12-.06-.13-.05L5.61,9.1a10,10,0,0,1-1-.39,9.27,9.27,0,0,0,1,.36l.52.17.13,0,.14.06a1.82,1.82,0,0,1,.23.15c.08,0,.15.11.23.15a1.28,1.28,0,0,0,.24.11,1.64,1.64,0,0,0,.54,0,1.86,1.86,0,0,0,.52-.11,1.24,1.24,0,0,0,.39-.25C8,8.39,7.57,7.28,7,6.25c.24.39.47.79.68,1.2A1,1,0,0,0,8,7.07a3.3,3.3,0,0,0,.13-.52A3.18,3.18,0,0,1,8.22,6a.92.92,0,0,1,.13-.24.91.91,0,0,1,.21-.18.69.69,0,0,0-.19.19A.6.6,0,0,0,8.25,6a3.12,3.12,0,0,0-.11.53A2.59,2.59,0,0,1,8,7.1a1.15,1.15,0,0,1-.12.25.91.91,0,0,1-.18.21l.18.35c.3.56.59,1.12.93,1.64A6.53,6.53,0,0,0,10,11a3.9,3.9,0,0,0,.74.54,3.32,3.32,0,0,0,.6.29c0-.17,0-.35,0-.52A7.79,7.79,0,0,1,11.55,10a1.07,1.07,0,0,1-.47,0,1.54,1.54,0,0,1-.45-.21A2.46,2.46,0,0,1,10,9.05a2.75,2.75,0,0,1-.36-.91,2,2,0,0,1,0-.49,1.6,1.6,0,0,1,.11-.48A1.59,1.59,0,0,1,9.8,7,.73.73,0,0,1,10,6.77a2.57,2.57,0,0,1,.41-.26,2.61,2.61,0,0,0,.43-.24L11,6.12A1.37,1.37,0,0,0,11.16,6a1.16,1.16,0,0,0,.25-.41,1.41,1.41,0,0,0,.11-.46,3.5,3.5,0,0,0-.07-1,3.94,3.94,0,0,1,.09,1,1.29,1.29,0,0,1-.11.47,1.35,1.35,0,0,1-.24.42L11,6.15l-.19.16a3.5,3.5,0,0,1-.42.24,2.75,2.75,0,0,0-.4.26,1,1,0,0,0-.28.38,1.67,1.67,0,0,0-.06.94A2.47,2.47,0,0,0,10,9a2.26,2.26,0,0,0,.66.68,1.75,1.75,0,0,0,.42.19,1,1,0,0,0,.46,0V10c0-.1.05-.2.08-.3.11-.32.23-.63.35-.95a.68.68,0,0,0-.07-.2,1.8,1.8,0,0,0-.32-.36,3.82,3.82,0,0,1-.36-.34.44.44,0,0,1-.1-.22.39.39,0,0,1,.05-.24.41.41,0,0,0,0,.24.59.59,0,0,0,.12.2,2.33,2.33,0,0,0,.38.31,2,2,0,0,1,.35.36.93.93,0,0,1,.05.1c.27-.65.55-1.28.8-1.93l0-.08-.18-.07h0c-.09.07-.23,0-.45-.22A1.31,1.31,0,0,1,12,5.62a1.39,1.39,0,0,1,.57.37c.18.22.21.35.17.44l.17.06a4.57,4.57,0,0,0,.19-.63,3.05,3.05,0,0,0,.05-.8,4.42,4.42,0,0,0-.12-.8l-.18-.79c.07.27.14.52.22.79a5.15,5.15,0,0,1,.16.8,3,3,0,0,1,0,.73h.1c0-.09.06-.21.28-.37a1.25,1.25,0,0,1,.64-.22,1.29,1.29,0,0,1-.39.55c-.29.2-.43.2-.5.1h-.14v0a4.46,4.46,0,0,1-.2.8c-.17.51-.37,1-.56,1.53,0,.07-.05.14-.07.22l.09-.09.32-.26L13,8l.09,0h0l0,0,.21-.06a.53.53,0,0,0,.19,0,.61.61,0,0,0,.16-.12l.06-.08a.26.26,0,0,0,.05-.09A2.23,2.23,0,0,0,14,7.07c0-.13,0-.27.07-.4L14,7.08a2,2,0,0,1-.11.4.41.41,0,0,1,0,.09l-.06.08a.46.46,0,0,1-.17.14.47.47,0,0,1-.2.06,1.06,1.06,0,0,0-.19.06l0,0,0,0h0L13,8l-.17.12-.31.27a2.91,2.91,0,0,0-.24.27c0,.1-.07.2-.1.29l-.12.39,0,.09,0,.1L12,9.74a6.89,6.89,0,0,0-.21,1.56,8.38,8.38,0,0,0,.16,1.58c.05.25.11.51.18.77s.08.26.11.38l.06.2,0,0v.05l0,.09a4.1,4.1,0,0,0,.71,1.34,4,4,0,0,0,1.15,1,7.8,7.8,0,0,0,.7.38h0c0-.09,0-.18.05-.27a5.48,5.48,0,0,0,0-.57,2.1,2.1,0,0,0-.08-.56,3.62,3.62,0,0,0-.2-.55L14.67,15a.75.75,0,0,0-.07-.12l-.07-.11h0a.33.33,0,0,0-.14,0l-.15,0a.35.35,0,0,0-.13.08.15.15,0,0,0-.05.14.18.18,0,0,1,0-.16.49.49,0,0,1,.13-.12.46.46,0,0,1,.16-.07.35.35,0,0,1,.11,0h0l-.37-.47a2.76,2.76,0,0,1-.34-.5,1.29,1.29,0,0,1-.16-.58,1.4,1.4,0,0,0,.2.56,2.67,2.67,0,0,0,.37.46c.13.15.27.29.41.44s.13.15.19.24l.09.13.08.13a3.57,3.57,0,0,1,.26.56h0l0,0,.1-.05a.62.62,0,0,1,.19-.07,2.33,2.33,0,0,1,.38-.08,3.82,3.82,0,0,0-.36.13,1,1,0,0,0-.17.1.25.25,0,0,0-.11.12h0a2.31,2.31,0,0,1,.08.47,4.28,4.28,0,0,1,0,.62c0,.14,0,.28,0,.41l.38.21a9.34,9.34,0,0,1,1.19.82c0-.23.08-.45.11-.68S17,17.18,17,17s0-.22,0-.34v-.16h0v0h0v-.13a2.09,2.09,0,0,0-.17-.59,2.92,2.92,0,0,0-.34-.55,5.27,5.27,0,0,0-.44-.52l-.24-.26-.12-.13,0,0h0v0l-.06-.07a8.87,8.87,0,0,1-.76-1L14.64,13a.63.63,0,0,0-.23-.08.6.6,0,0,0-.23,0,1.46,1.46,0,0,1-.51,0,1.19,1.19,0,0,1-.48-.16,1.46,1.46,0,0,0,.48.14,1.73,1.73,0,0,0,.5-.07.74.74,0,0,1,.26,0,.53.53,0,0,1,.25.08h0a5.94,5.94,0,0,1-.61-1.27,4,4,0,0,1-.22-1.42,3.7,3.7,0,0,1,.31-1.39,3.71,3.71,0,0,0,.12,2.73,5.28,5.28,0,0,0,.27.53.91.91,0,0,1,.16-.11.88.88,0,0,0,.22-.21,2.33,2.33,0,0,0,.32-.55c0-.14.08-.28.1-.42s-.08-.4-.06-.61c0,.21.09.4.09.61a3,3,0,0,1-.08.43h0a2.66,2.66,0,0,1-.3.58,1.31,1.31,0,0,1-.23.24l-.16.13a5,5,0,0,0,.38.56,10.06,10.06,0,0,0,.92,1l.07.06,0,0h0l0,0,.13.12.27.24a5.17,5.17,0,0,1,.51.53,3.27,3.27,0,0,1,.35.46,3.38,3.38,0,0,1,.41-.24A.71.71,0,0,1,18,15l.28,0L18,15a.54.54,0,0,0-.25.09,2.6,2.6,0,0,0-.38.27l0,.07a2.48,2.48,0,0,1,.28.76.36.36,0,0,1,0,.1v.07h0v0h0c0,.07,0,.13,0,.19s0,.25,0,.37,0,.5,0,.74c0,.47-.08.93-.13,1.38a.08.08,0,0,1,0,0l.14.17.06.09.06.09a3.75,3.75,0,0,1,.24.36c.13.22.25.44.36.67h.82V14.84c-.15-.14-.27-.28-.39-.41"/><path class="cls-2" d="M19.26,13.61v-1a2.19,2.19,0,0,0-.26.74c.09.07.17.16.26.24"/><path class="cls-3" d="M19.19,7a3.45,3.45,0,0,0,.07.55V6.33s0,.06,0,.1a1.81,1.81,0,0,0,0,.57"/><path class="cls-4" d="M2.31,24.61a2.31,2.31,0,0,1-.69-.08,1,1,0,0,1-.4-.27A.89.89,0,0,1,1,23.88a2,2,0,0,1-.07-.61v-2h.69v1.94a1.77,1.77,0,0,0,0,.4.42.42,0,0,0,.09.19A.53.53,0,0,0,2,24a1.4,1.4,0,0,0,.4,0h.81v.55Z"/><path class="cls-4" d="M4.15,21.32v2a1,1,0,0,0,.17.65.76.76,0,0,0,.58.18.75.75,0,0,0,.57-.18,1,1,0,0,0,.17-.65v-2h.69v2a2.14,2.14,0,0,1,0,.56.72.72,0,0,1-.14.33,1.09,1.09,0,0,1-.5.34,2,2,0,0,1-.74.11,2,2,0,0,1-.75-.11,1.24,1.24,0,0,1-.5-.34.79.79,0,0,1-.14-.32,2.73,2.73,0,0,1,0-.56v-2Z"/><polygon class="cls-4" points="7 21.32 8.02 21.32 8.86 23.84 9.7 21.32 10.71 21.32 10.71 24.61 10.03 24.61 10.09 22.04 9.25 24.61 8.51 24.61 7.64 22.02 7.71 24.61 7 24.61 7 21.32 7 21.32"/><rect class="cls-4" x="11.4" y="21.32" width="0.72" height="3.29"/><path class="cls-2" d="M14.24,21.81a.82.82,0,0,0-.67.28,1.38,1.38,0,0,0-.22.84,1.44,1.44,0,0,0,.22.89.78.78,0,0,0,.67.29.79.79,0,0,0,.67-.29,1.41,1.41,0,0,0,.22-.86,1.46,1.46,0,0,0-.22-.87.81.81,0,0,0-.67-.28M12.6,22.93a1.76,1.76,0,0,1,.4-1.27,1.68,1.68,0,0,1,1.24-.41,1.65,1.65,0,0,1,1.24.42,1.8,1.8,0,0,1,.4,1.29,1.8,1.8,0,0,1-.4,1.29,1.65,1.65,0,0,1-1.24.42A1.66,1.66,0,0,1,13,24.25a1.89,1.89,0,0,1-.39-1.32"/><polygon class="cls-2" points="16.36 21.32 17.23 21.32 18.58 23.68 18.55 21.32 19.26 21.32 19.26 24.61 18.45 24.61 17.04 22.12 17.07 24.61 16.36 24.61 16.36 21.32"/><path class="cls-4" d="M31.41,18.21A7.47,7.47,0,0,1,29.14,18a3.54,3.54,0,0,1-2.09-2.15,6.86,6.86,0,0,1-.22-2V7.35h2.29v6.38a6.85,6.85,0,0,0,.08,1.33,1.42,1.42,0,0,0,.29.63,2,2,0,0,0,.8.55,4.45,4.45,0,0,0,1.3.16h2.69v1.81Z"/><path class="cls-4" d="M37.48,7.35v6.5A3.12,3.12,0,0,0,38,16a2.47,2.47,0,0,0,1.9.59A2.49,2.49,0,0,0,41.83,16a3.18,3.18,0,0,0,.55-2.12V7.35h2.28V13.9a8.21,8.21,0,0,1-.15,1.84A2.56,2.56,0,0,1,44,16.83,3.67,3.67,0,0,1,42.39,18a7,7,0,0,1-2.45.36A7,7,0,0,1,37.48,18a4,4,0,0,1-1.64-1.13,2.44,2.44,0,0,1-.47-1,9.76,9.76,0,0,1-.15-1.86V7.37h2.26Z"/><polygon class="cls-4" points="46.87 7.35 50.23 7.35 52.99 15.69 55.76 7.35 59.11 7.35 59.11 18.21 56.87 18.21 57.05 9.76 54.27 18.21 51.84 18.21 48.97 9.66 49.2 18.21 46.88 18.21 46.88 7.35 46.87 7.35"/><rect class="cls-4" x="61.37" y="7.35" width="2.38" height="10.85"/><path class="cls-2" d="M70.73,9a2.63,2.63,0,0,0-2.19.92,4.42,4.42,0,0,0-.73,2.76,5,5,0,0,0,.71,2.95,3.1,3.1,0,0,0,4.42,0,4.63,4.63,0,0,0,.72-2.85,4.65,4.65,0,0,0-.72-2.86A2.6,2.6,0,0,0,70.73,9m-5.42,3.67A5.75,5.75,0,0,1,66.65,8.5a5.48,5.48,0,0,1,4.08-1.37,5.42,5.42,0,0,1,4.09,1.38,6,6,0,0,1,1.32,4.26A6,6,0,0,1,74.82,17a5.38,5.38,0,0,1-4.09,1.39,5.4,5.4,0,0,1-4.1-1.4,6.13,6.13,0,0,1-1.32-4.36"/><polygon class="cls-2" points="77.72 7.35 80.6 7.35 85.05 15.15 84.94 7.35 87.28 7.35 87.28 18.21 84.63 18.21 79.96 10 80.06 18.21 77.72 18.21 77.72 7.35"/></g></g></svg>