<svg xmlns="http://www.w3.org/2000/svg" viewBox="0 0 116.07 25.23"><defs><style>.cls-1{fill:#c8351b;}.cls-2{fill:#fff;}.cls-3{fill:#d7d8dc;}.cls-4{fill:#505050;}</style></defs><title>sketchup</title><g id="Camada_2" data-name="Camada 2"><g id="Camada_1-2" data-name="Camada 1"><path class="cls-1" d="M7.87,15.57c-1,.24-2,.45-3,.7.26.8.55,1.59.81,2.38,0,.07.06.19.16.14C7.43,18.41,9,18,10.65,17.6a2.4,2.4,0,0,0-.21-.46l-1-1.91c-.54.06-1.06.25-1.6.34ZM12,7.91,3.3,9.43l0,.05c.28.78.58,1.55.87,2.32A5.14,5.14,0,0,0,5,11.66l3.94-.76c.06,0,.17,0,.2,0,.34.6.69,1.19,1,1.78a1.46,1.46,0,0,0,.22.33,3.71,3.71,0,0,0,.58-.11c1.57-.34,3.15-.66,4.72-1,0-.08-.06-.12-.09-.18l-3-3.65c-.08-.09-.13-.2-.23-.25a3.47,3.47,0,0,0-.45.06ZM1.72,3.23A3.32,3.32,0,0,0,2,3.85c.22.5.4,1,.64,1.48a5.51,5.51,0,0,0,.79-.1l8-1.15A5.92,5.92,0,0,1,12.3,4c1.17,1.17,2.31,2.39,3.48,3.57.21,0,.41-.07.62-.1,1.7-.29,3.39-.61,5.09-.89-.24-.23-.52-.41-.77-.62l-5.39-4.2c-.12-.09-.23-.23-.39-.19L1.72,3.23ZM15.18,0h.37c.39.34.82.65,1.22,1l3,2.32,0,0L23.2,6l0,0c.1.08.26.15.21.31q-.86,7.14-1.7,14.29l-.12.06-.13,0-.28.07-.13.06H21l-.12.06H20.8l-.13.06h-.1l-.13.06h-.05l-.13.06h-.1l-.13.06H20l-.13.06h-.1l-.13.06h-.05l-.13.06h-.1l-.13.06h-.05l-.13.06h-.1l-.13.06-.28.06-.13.05-.28.06-.13.06h-.11l-.12.06H17.7l-.13.06h-.11l-.12.06h-.05l-.13.07h-.11l-.12.06h-.05l-.13.06h-.11l-.12.06h-.05l-.13.06h-.11l-.12.06h-.05l-.13.07h-.1l-.13.05-.28.06-.13.06-.29.06-.12.06h-.11l-.12.06h-.06l-.12.07h-.11l-.12.06h-.05l-.13.06H14l-.12.06h-.05l-.13.06h-.11l-.12.06-.29.06-.12.05-.29.07-.12.05h-.06l-.12.06h-.11l-.12.06-.29.06-.12.06h-.11l-.12.06h-.06l-.12.06h-.11l-.12.06h-.06L11,23.7h-.11l-.12.06h-.06l-.12.06h-.11l-.13.06h-.05l-.12.06H10L9.91,24l-.29.06-.12.06-.29.06-.12.06H9l-.13.06h0l-.12.07H8.57l-.13.06h0l-.12.06H8.16L8,24.52H8l-.12.06H7.75l-.13.06h0l-.12.06H7.34l-.13.06h0L7,24.81H6.93l-.12.06-.29.06L6.4,25l-.29.06L6,25.11h-.1l-.13.06h0l-.12.07a.31.31,0,0,1-.19-.06l0-.13V25a.75.75,0,0,0-.06-.13v-.05a.67.67,0,0,1-.06-.12v-.05l-.06-.13a2.86,2.86,0,0,0-.07-.28L5,24.1v-.05L5,23.93v-.05a.52.52,0,0,1-.06-.13V23.7l-.06-.12v0l-.07-.13v0a.67.67,0,0,1-.06-.12v-.06s0-.09-.06-.12V23l-.06-.13-.06-.28-.07-.12v0a.75.75,0,0,1-.06-.13v-.05l-.06-.12v-.06l-.07-.12v-.05a.75.75,0,0,1-.06-.13v-.05s0-.09-.06-.12v-.05l-.07-.13v-.05a.67.67,0,0,1-.06-.12c0-.1,0-.19-.07-.28L4,20.83v0a.75.75,0,0,0-.06-.13v0l-.07-.12v-.05l-.06-.13v-.05a.67.67,0,0,0-.06-.12v-.06L3.7,20V19.9a.75.75,0,0,1-.06-.13v-.05a.67.67,0,0,0-.06-.12,2.29,2.29,0,0,0-.07-.28.75.75,0,0,0-.06-.13v-.05L3.4,19V19l-.06-.12v-.05l-.06-.13v-.05l-.07-.12v0l-.06-.13v0l-.06-.13c0-.15-.08-.3-.13-.45a.75.75,0,0,0-.06-.13V17.5a.67.67,0,0,1-.06-.12v-.05a.52.52,0,0,0-.06-.13v-.05L2.76,17V17a.67.67,0,0,1-.06-.12V16.8l-.06-.13a1.89,1.89,0,0,0,0-.23.67.67,0,0,1-.06-.12A2.86,2.86,0,0,1,2.47,16a.52.52,0,0,1-.06-.13v-.05l-.06-.12v-.05l-.07-.13v-.05a.67.67,0,0,1-.06-.12c-.55-3.3-1.11-6.6-1.66-9.91C.39,4.32.17,3.16,0,2c.1-.08.24-.05.36-.08L14.88,0a.24.24,0,0,0,.3,0Z"/><path class="cls-2" d="M1.72,3.23l13.22-1.7c.16,0,.27.1.39.19l5.39,4.2c.25.21.53.39.77.62-1.7.28-3.39.6-5.09.89-.21,0-.41.09-.62.1C14.61,6.35,13.47,5.13,12.3,4a5.92,5.92,0,0,0-.93.12l-8,1.15a5.51,5.51,0,0,1-.79.1c-.24-.48-.42-1-.64-1.48a3.32,3.32,0,0,1-.24-.62Z"/><path class="cls-2" d="M12,7.91a3.47,3.47,0,0,1,.45-.06c.1.05.15.16.23.25l3,3.65c0,.06.11.1.09.18-1.57.35-3.15.67-4.72,1a3.71,3.71,0,0,1-.58.11,1.46,1.46,0,0,1-.22-.33c-.34-.59-.69-1.18-1-1.78,0-.08-.14,0-.2,0L5,11.66a5.14,5.14,0,0,1-.86.14c-.29-.77-.59-1.54-.87-2.32l0-.05L12,7.91Z"/><path class="cls-2" d="M7.87,15.57c.54-.09,1.06-.28,1.6-.34l1,1.91a2.4,2.4,0,0,1,.21.46C9,18,7.43,18.41,5.81,18.79c-.1.05-.14-.07-.16-.14-.26-.79-.55-1.58-.81-2.38,1-.25,2-.46,3-.7Z"/><path class="cls-3" d="M31.67,5.11l.17,0c.61,0,1.22,0,1.83,0a3.75,3.75,0,0,1,.75.09.29.29,0,0,0,.18,0l.17,0a.22.22,0,0,0,.17,0,1.09,1.09,0,0,1,.36.06A9.12,9.12,0,0,1,37.07,6,3.63,3.63,0,0,1,37,6.9a.57.57,0,0,0,0,.29l0,.18a.7.7,0,0,0,0,.29.5.5,0,0,1,0,.24.67.67,0,0,0,0,.28,1.23,1.23,0,0,0,0,.19.45.45,0,0,0,0,.28.73.73,0,0,1,0,.25.64.64,0,0,0,0,.28v.06h-.05A10.93,10.93,0,0,0,33.9,8.17a.26.26,0,0,0-.17-.05,1.81,1.81,0,0,1-.52-.06,3.94,3.94,0,0,0-1,0l-.16,0a.21.21,0,0,0-.17,0,2.08,2.08,0,0,0-.62.34,1.15,1.15,0,0,0-.28.43L31,9a1.26,1.26,0,0,0,.36,1.11,6.86,6.86,0,0,0,2,1A11.75,11.75,0,0,1,36.6,12.8a3.47,3.47,0,0,1,1.28,2.07.21.21,0,0,0,0,.17A5.1,5.1,0,0,1,38,16.5a1.48,1.48,0,0,1-.06.47.21.21,0,0,0,0,.17,3.8,3.8,0,0,1-.73,1.73,4.61,4.61,0,0,1-2.51,1.65l-.1,0-.12.05h-.11l-.12.05-.18,0a.18.18,0,0,0-.17,0l-.19,0a.67.67,0,0,0-.28,0,4.84,4.84,0,0,1-.93.05,7.45,7.45,0,0,1-1.06-.05,1,1,0,0,0-.39,0,2.41,2.41,0,0,1-.6-.08.23.23,0,0,0-.18,0l-.18,0a.2.2,0,0,0-.17,0h-.12a.18.18,0,0,0-.17-.06,1,1,0,0,1-.35-.06l-.12-.05a11.56,11.56,0,0,1-1.8-.61l0,0v-.15a7.3,7.3,0,0,1,.09-.94,5.93,5.93,0,0,1,.1-.72.65.65,0,0,0,0-.28,9.49,9.49,0,0,1,.14-1.18h.09a16.61,16.61,0,0,0,2,.86c.29.1.6.18.9.27l.12,0h.11a.22.22,0,0,0,.17.05l.18,0a.18.18,0,0,0,.17,0l.19,0a.41.41,0,0,0,.22,0,11.81,11.81,0,0,0,1.19,0,.21.21,0,0,0,.17,0,2.24,2.24,0,0,0,.74-.33,1.29,1.29,0,0,0,.44-.73,1.44,1.44,0,0,0,0-.62c-.13-.58-.69-.9-1.18-1.14-1.2-.58-2.5-.94-3.65-1.62a4.33,4.33,0,0,1-1.8-1.77,2.23,2.23,0,0,1-.22-.66.21.21,0,0,0-.05-.17,3.12,3.12,0,0,1-.08-.52c0-.38,0-.76,0-1.13a.91.91,0,0,1,0-.23.19.19,0,0,0,0-.16A3.69,3.69,0,0,1,28,7.17,4.6,4.6,0,0,1,30.7,5.29a2.39,2.39,0,0,1,.45-.09.21.21,0,0,0,.17,0h.13a.57.57,0,0,0,.22,0Z"/><path class="cls-3" d="M41.09,5.75c.64-.18,1.27-.38,1.91-.53,0,3,0,5.89,0,8.84L43.1,14C44,12.57,45,11.13,45.9,9.71c.64,0,1.28,0,1.92,0s1.13,0,1.7,0a.5.5,0,0,1-.1.19c-1.09,1.55-2.16,3.11-3.24,4.66a.14.14,0,0,0,0,.2l3.39,5.33c0,.07.1.13.1.21a.54.54,0,0,1-.25.06l-.11.05a6.15,6.15,0,0,1-.71.18l-.12.05a1.37,1.37,0,0,1-.29.07.37.37,0,0,0-.11.05c-.53.14-1.05.32-1.58.43h-.1c-1.12-1.83-2.21-3.67-3.32-5.51l-.08-.1c0,1.59,0,3.19,0,4.79,0,.08,0,.16,0,.24-.84,0-1.68,0-2.52,0-.27,0-.55,0-.82,0,0-.93,0-1.87,0-2.81V7.08c0-.31,0-.62,0-.92.32-.08.62-.2.94-.25l.12,0A.94.94,0,0,1,41,5.8l.11,0Z"/><path class="cls-3" d="M64,5.57c.43-.12.85-.25,1.28-.35,0,1.47,0,3,0,4.43l0,0c.68,0,1.36,0,2,0v.13a.21.21,0,0,0,0,.17l0,.18a.18.18,0,0,0,0,.17,1.24,1.24,0,0,0,0,.18.18.18,0,0,0,0,.17,1.24,1.24,0,0,0,0,.18.18.18,0,0,0,0,.17,1.24,1.24,0,0,0,0,.18.18.18,0,0,0,0,.17,1.24,1.24,0,0,0,0,.18.17.17,0,0,0,0,.17,2.35,2.35,0,0,1,.09.53.5.5,0,0,1,0,.12c-.81,0-1.62,0-2.43,0l0,.05c0,1.38,0,2.76,0,4.15a1.19,1.19,0,0,0,.53,1.1,2.4,2.4,0,0,0,1.52.1l.06,0v.06a.18.18,0,0,0,0,.17,1.1,1.1,0,0,0,0,.18.18.18,0,0,0,0,.17,1,1,0,0,0,0,.18.18.18,0,0,0,0,.17s0,.14,0,.18a.18.18,0,0,0,0,.17v.18a.2.2,0,0,0,0,.17l0,.18a.23.23,0,0,0,0,.18,1,1,0,0,1,0,.17.23.23,0,0,0,0,.18l0,.18c0,.08,0,.15-.06.22a1.2,1.2,0,0,1-.32.06.2.2,0,0,0-.17,0,.69.69,0,0,1-.25,0,.93.93,0,0,0-.33,0,6,6,0,0,1-1.41,0,1,1,0,0,0-.34,0l-.19,0a.21.21,0,0,0-.17,0l-.12,0a.26.26,0,0,0-.17-.05,2.71,2.71,0,0,1-2.16-2,.6.6,0,0,1-.06-.11.49.49,0,0,0,0-.12.2.2,0,0,0,0-.17,6.48,6.48,0,0,1-.1-1.52V12.43H60.7c-.09-.08-.05-.22-.07-.32a.22.22,0,0,0,0-.18v-.12a.22.22,0,0,0-.05-.17,1,1,0,0,1,0-.18.22.22,0,0,0-.05-.17,1,1,0,0,1,0-.18.22.22,0,0,0,0-.17v-.18a.21.21,0,0,0,0-.17c0-.05,0-.14,0-.18a.18.18,0,0,0-.05-.17c0-.05,0-.14,0-.18a.18.18,0,0,0,0-.17.81.81,0,0,1,0-.22c.54,0,1.09,0,1.64,0,0-1.16,0-2.33,0-3.49.52-.15,1-.32,1.56-.43l.11,0a.78.78,0,0,1,.3-.07l.11,0Z"/><path class="cls-3" d="M79,6.15c1.11-.3,2.22-.64,3.33-.93,0,.64,0,1.28,0,1.92V11l.08,0a5.07,5.07,0,0,1,2.24-1.37l.12,0h.12a.2.2,0,0,0,.17,0,3.05,3.05,0,0,1,1,0,.45.45,0,0,0,.23,0l.12,0a.21.21,0,0,0,.17,0,2.52,2.52,0,0,1,1.93,1.94,1.09,1.09,0,0,0,.06.11v.12a.23.23,0,0,0,.05.18s0,.14,0,.18a.65.65,0,0,0,0,.28c0,.53,0,1.06,0,1.58V20.6c-.65,0-1.29,0-1.94,0-.49,0-1,0-1.46,0,0-2.24,0-4.49,0-6.73a1.71,1.71,0,0,0-.31-1.1,1.15,1.15,0,0,0-.45-.27.21.21,0,0,0-.17,0,2.72,2.72,0,0,0-2,.94.27.27,0,0,0,0,.18v5.2c0,.61,0,1.22,0,1.82-.65,0-1.29,0-1.94,0-.47,0-.94,0-1.41,0,0-1.46,0-2.93,0-4.39V8.13c0-.66,0-1.32,0-2Z"/><path class="cls-3" d="M90.83,5.21c1.28,0,2.57,0,3.85,0,0,2.67,0,5.34,0,8a15.89,15.89,0,0,0,.07,2.29.18.18,0,0,0,0,.17v.06l0,.12a2.49,2.49,0,0,0,1,1.42,4.39,4.39,0,0,0,.66.29.18.18,0,0,0,.16,0,3.39,3.39,0,0,0,1.84-.21,2.3,2.3,0,0,0,1.23-1.54l0-.12v-.12a.19.19,0,0,0,.06-.16c0-.26,0-.51.05-.77,0-3.16,0-6.32,0-9.47h3.85v7.94a19.24,19.24,0,0,1-.07,2.52.18.18,0,0,0,0,.17.49.49,0,0,0,0,.12.23.23,0,0,0,0,.18.37.37,0,0,1,0,.11.22.22,0,0,0,0,.17,5.42,5.42,0,0,1-1.09,2.31,5.56,5.56,0,0,1-2.85,1.82,1.75,1.75,0,0,1-.44.1.22.22,0,0,0-.18,0H98.9a.25.25,0,0,0-.17.05,3.94,3.94,0,0,1-.76.09q-.73,0-1.47,0a4.06,4.06,0,0,1-.7-.08.21.21,0,0,0-.17,0l-.18,0a.22.22,0,0,0-.17-.05h-.12l-.11-.06a.78.78,0,0,1-.3-.07.37.37,0,0,1-.11-.05,5.12,5.12,0,0,1-3.51-3.68,1,1,0,0,1,0-.11,1.19,1.19,0,0,1-.08-.41l0-.12a3.5,3.5,0,0,1-.08-.64c0-.16,0-.33,0-.49,0-1.38,0-2.76,0-4.14,0-1.89,0-3.78,0-5.67Z"/><path class="cls-3" d="M53.41,12.56a2.49,2.49,0,0,0-.26.84l0,0,0,.06,0,0a2.7,2.7,0,0,0-.07.63h3.44a.78.78,0,0,0,0-.22c.06-.07.07-.26,0-.29v-.12c.05-.09,0-.14,0-.17a.49.49,0,0,1,0-.12c.06-.09,0-.14-.05-.17A1.89,1.89,0,0,0,55.65,12a1.49,1.49,0,0,0-1.26-.24,1.53,1.53,0,0,0-1,.85Zm.44-3a4.56,4.56,0,0,1,.82-.08,3.23,3.23,0,0,1,.76,0,.67.67,0,0,0,.28,0l.19,0a.21.21,0,0,0,.17,0h.12l.12.05h.11l.11.06a4.26,4.26,0,0,1,2.87,3.15.61.61,0,0,1,.05.12,1,1,0,0,1,.07.36.18.18,0,0,0,0,.17,2.82,2.82,0,0,1,.08.65.79.79,0,0,0,0,.34,5.62,5.62,0,0,1,0,1.16c0,.1,0,.2,0,.31-.6,0-1.21,0-1.81,0H53.05a2,2,0,0,0,0,.23v.1a.21.21,0,0,0,.05.17,2.44,2.44,0,0,0,.78,1.35,2.65,2.65,0,0,0,1.05.48.35.35,0,0,0,.22,0c.28,0,.56,0,.83,0s.47-.07.71-.07a.21.21,0,0,0,.17,0,9.2,9.2,0,0,0,2.36-1c.14,0,.07.27.1.39a.18.18,0,0,0,0,.17s0,.13,0,.18a.18.18,0,0,0,0,.17s0,.13,0,.18a.18.18,0,0,0,0,.17,1.24,1.24,0,0,0,0,.18.18.18,0,0,0,0,.17v.18a.18.18,0,0,0,.05.17c0,.13.08.28,0,.4a5.42,5.42,0,0,1-.89.47l-.11.06a4.91,4.91,0,0,1-1.06.36l-.11.05h-.12l-.12,0h-.12a.21.21,0,0,0-.17,0h-.12a.2.2,0,0,0-.17,0,8.58,8.58,0,0,1-2.58,0,.21.21,0,0,0-.17-.05h-.12a.21.21,0,0,0-.17,0H53.5l-.12-.06a1.76,1.76,0,0,1-.54-.16,4.49,4.49,0,0,1-2.28-1.81,4.58,4.58,0,0,1-.69-1.77.24.24,0,0,0,0-.17,4.92,4.92,0,0,1-.11-.77,7.87,7.87,0,0,1,.05-1.75.59.59,0,0,0,0-.23v-.12a.22.22,0,0,0,0-.17v-.12a.22.22,0,0,0,0-.17.73.73,0,0,1,.07-.3l0-.12a1.12,1.12,0,0,1,.13-.39,4.84,4.84,0,0,1,1.9-2.31,4.26,4.26,0,0,1,1.6-.63.22.22,0,0,0,.17,0Z"/><path class="cls-3" d="M110.51,12.54v.05a2.93,2.93,0,0,0-1.32,1c0,.45,0,.89,0,1.34,0,.93,0,1.87,0,2.8a.72.72,0,0,0,.44.18V18h.16c0,.09.09.1.17.05a3,3,0,0,0,1,0c.08.07.14.06.17,0a1.82,1.82,0,0,0,1.4-1.58c.1,0,.11-.08,0-.17s0-.09,0-.12.1-.18,0-.23a.83.83,0,0,0,0-.28c.08-.16,0-.36,0-.53s0-.38,0-.54a3.72,3.72,0,0,0-.08-.57l0-.05,0-.06h0a1.71,1.71,0,0,0-.7-1.16,1.54,1.54,0,0,0-1.22-.17l0,0-.06,0Zm1.21-3a2.37,2.37,0,0,1,.88,0,.4.4,0,0,0,.22,0l.19,0,.11,0a3.26,3.26,0,0,1,2.11,1.57,5.62,5.62,0,0,1,.77,2.36.54.54,0,0,0,0,.28,2.66,2.66,0,0,1,0,.28c0,.54,0,1.07,0,1.6a3.18,3.18,0,0,1-.09.69.22.22,0,0,0,0,.18s0,.13,0,.18a.17.17,0,0,0-.06.16,1.94,1.94,0,0,1-.12.53l0,.12a4.47,4.47,0,0,1-2,2.64,4.66,4.66,0,0,1-2.93.5.42.42,0,0,0-.22,0,1,1,0,0,1-.25,0,.21.21,0,0,0-.17-.05H110l-.12-.05a6.14,6.14,0,0,1-.68-.17v3a3.23,3.23,0,0,1,0,.76H109l-.11.05a.82.82,0,0,1-.3.07l-.11,0a1.07,1.07,0,0,1-.3.06l-.11.06H108l-.12.05h0l-.12,0c-.45.12-.89.28-1.35.36l-.11,0a1.07,1.07,0,0,1-.43.09c0-4.78,0-9.57,0-14.35,0-.34,0-.68,0-1,.88,0,1.76,0,2.64,0,.11,0,.23,0,.32,0a1.38,1.38,0,0,1,0,.35.18.18,0,0,0,0,.17s0,.13,0,.18a.21.21,0,0,0,0,.17,1,1,0,0,1,0,.18.29.29,0,0,0,0,.18l.08.11a4.52,4.52,0,0,1,2.47-1.53.46.46,0,0,0,.23,0Z"/><path class="cls-3" d="M72.81,9.61a6.64,6.64,0,0,1,2,0,.65.65,0,0,0,.28,0l.19,0a.18.18,0,0,0,.16.05,1.94,1.94,0,0,1,.59.12l.12.06a4.2,4.2,0,0,1,1,.41,1.22,1.22,0,0,0,0,.27c0,.05,0,.14,0,.19a.54.54,0,0,0,0,.28,1.07,1.07,0,0,1,0,.25.52.52,0,0,0,0,.28s0,.14,0,.18A.67.67,0,0,0,77,12a.52.52,0,0,1,0,.25.67.67,0,0,0,0,.28c0,.05,0,.14,0,.19a.65.65,0,0,0,0,.28,1.93,1.93,0,0,1,0,.24,5.73,5.73,0,0,0-1.57-.72.37.37,0,0,0-.18,0,3.38,3.38,0,0,0-1.64.12,2.26,2.26,0,0,0-1.36,1.7.2.2,0,0,0,0,.17,10.27,10.27,0,0,0,0,1.36.21.21,0,0,0,0,.17,2.66,2.66,0,0,0,.7,1.31,2.4,2.4,0,0,0,1.08.57.21.21,0,0,0,.17,0,5.56,5.56,0,0,0,1.29,0l.12-.05a4.87,4.87,0,0,0,1.2-.51.76.76,0,0,1,.3-.14c0,.12,0,.23,0,.35a.18.18,0,0,0,.05.17s0,.14,0,.18a.21.21,0,0,0,0,.17,1.24,1.24,0,0,1,0,.18.21.21,0,0,0,0,.17,1.24,1.24,0,0,1,0,.18.21.21,0,0,0,0,.17,1.24,1.24,0,0,1,0,.18.2.2,0,0,0,0,.17c0,.05,0,.14,0,.18a.28.28,0,0,0,0,.18.83.83,0,0,1,.06.44,5.71,5.71,0,0,1-2.21.83.22.22,0,0,0-.17.05,1,1,0,0,1-.3,0,1.07,1.07,0,0,0-.4,0,3.32,3.32,0,0,1-.63,0l-.49,0a1.53,1.53,0,0,1-.52-.08.22.22,0,0,0-.17-.05,3.13,3.13,0,0,1-1-.33A4.69,4.69,0,0,1,68.83,17l0-.12v-.12a.21.21,0,0,0,0-.17,3.52,3.52,0,0,1-.09-.64c0-.49,0-1,0-1.48a.83.83,0,0,1,0-.22.45.45,0,0,0,0-.23,1,1,0,0,1,0-.24l0-.12a4.94,4.94,0,0,1,1.44-2.77,4.69,4.69,0,0,1,2.19-1.2.21.21,0,0,0,.17-.05h.12l.12-.05Z"/><path class="cls-4" d="M20.85,20.89l.12-.06-.12.06Z"/><path class="cls-4" d="M17.75,21.77l.12-.06-.12.06Z"/><path class="cls-4" d="M14.65,22.65l.12-.06-.12.06Z"/><path class="cls-4" d="M5,24.1l.06.13L5,24.1Z"/><path class="cls-4" d="M8.85,24.29,9,24.23l-.13.06Z"/><path class="cls-4" d="M5.75,25.17l.13-.06-.13.06Z"/></g></g></svg>