<svg xmlns="http://www.w3.org/2000/svg" viewBox="0 0 106.39 24.62"><defs><style>.cls-1{fill:#d7d8dc;}</style></defs><title>vray</title><g id="Camada_2" data-name="Camada 2"><g id="Camada_1-2" data-name="Camada 1"><path class="cls-1" d="M104.63,12.37a1.77,1.77,0,1,0,1.76,1.76A1.76,1.76,0,0,0,104.63,12.37Zm0,3.25a1.49,1.49,0,0,1-1.49-1.49,1.49,1.49,0,1,1,1.49,1.49ZM52,16.2v-1H49.53v7.62H52V18a2.41,2.41,0,0,1,1.78-.71,2.17,2.17,0,0,1,.6.08V15.05A3.35,3.35,0,0,0,52,16.2ZM50.72,8.8h1l.88-2.08h3l.94,2.08h1L54.46,1.72h-.71L51,8.26c-.22-.31-.37-.53-.57-.85a5.61,5.61,0,0,0-1.57-1.95,2.17,2.17,0,0,0,.5-.28A1.76,1.76,0,0,0,50,3.73c0-1.22-.89-2-2.31-2H45.9v7h1V5.74h.42c.52,0,.94.17,1.87,1.61l.93,1.45Zm3.36-5.53,1.14,2.54H53ZM47.46,4.84h-.65V2.63h.65c1,0,1.38.4,1.39,1.06a1.09,1.09,0,0,1-.29.8A1.5,1.5,0,0,1,47.46,4.84Zm-6,7.49-4,10.53h3L41,21.27h4.37l.54,1.59h3l-4-10.53ZM41.67,19l1.47-4.28L44.62,19Zm23-13.24h3.94V8.8h1v-7h-1V4.84H64.67V1.76h-1v7h1ZM76.34,7.1a.82.82,0,0,1-.28.59l0,0-.12.09a1.42,1.42,0,0,1-.7.17,2.37,2.37,0,0,1-1.86-1V8.24a3.11,3.11,0,0,0,2,.65,2,2,0,0,0,1.41-.54A1.88,1.88,0,0,0,77.28,7c0-2.24-3-2.22-3-3.57a.71.71,0,0,1,.31-.6,1.33,1.33,0,0,1,.8-.23A2.34,2.34,0,0,1,77,3.31V2.16a2.79,2.79,0,0,0-1.57-.49,2.37,2.37,0,0,0-1.4.4,1.7,1.7,0,0,0-.73,1.48C73.3,5.48,76.34,5.64,76.34,7.1Zm-48.2,5.21a1.76,1.76,0,0,0,1.76-1.76S30,.1,21.15,0C10.93-.32.19,22.07.19,22.07a1.76,1.76,0,1,0,3.14,1.58s9.79-20,17.78-20.14c5.27-.11,5.27,7,5.27,7A1.76,1.76,0,0,0,28.14,12.31ZM95.89,1.76H86.35v7h1V5.74H90.1v-.9H87.36V2.67h5.08V8.8h1V2.67h2.44ZM41.94,8.89a6.2,6.2,0,0,0,2.68-.58v-3H42.26v.91h1.35V7.68A4.76,4.76,0,0,1,42.09,8a2.64,2.64,0,0,1-2.85-2.67A2.7,2.7,0,0,1,40,3.37,2.74,2.74,0,0,1,42,2.6a5.21,5.21,0,0,1,2.53.69v-1A5.81,5.81,0,0,0,42,1.67a3.79,3.79,0,0,0-2.69,1.05,3.55,3.55,0,0,0-1.09,2.6A3.56,3.56,0,0,0,41.94,8.89ZM80.69,17.2a1.66,1.66,0,0,1,1.43.72l1.58-1.47a3.66,3.66,0,0,0-3.12-1.4,4,4,0,1,0,0,8,3.68,3.68,0,0,0,3.12-1.4l-1.58-1.49a1.7,1.7,0,0,1-1.43.74A1.74,1.74,0,0,1,78.9,19,1.72,1.72,0,0,1,80.69,17.2ZM85.43,5.28a3.59,3.59,0,0,0-3.79-3.61A3.83,3.83,0,0,0,78.9,2.74a3.56,3.56,0,0,0-1,2.54,3.59,3.59,0,0,0,3.75,3.61A3.91,3.91,0,0,0,84.16,8,3.52,3.52,0,0,0,85.43,5.28ZM83.22,7.46a2.8,2.8,0,0,1-1.64.5,2.64,2.64,0,0,1-2.73-2.69,2.65,2.65,0,0,1,.78-1.92,2.79,2.79,0,0,1,2-.76,2.64,2.64,0,0,1,2.74,2.69A2.62,2.62,0,0,1,83.22,7.46Zm16,8.68A2.81,2.81,0,0,0,97,15.05c-1.91,0-3.38,1.5-3.38,4s1.5,4,3.38,4A2.88,2.88,0,0,0,99.26,22v.88h2.42V12.33H99.26Zm0,4.07a2,2,0,0,1-1.46.69A1.69,1.69,0,0,1,96.12,19,1.67,1.67,0,0,1,97.8,17.2a2,2,0,0,1,1.46.67Zm-9.32-4.07a2.81,2.81,0,0,0-2.26-1.09c-1.91,0-3.38,1.5-3.38,4s1.5,4,3.38,4A2.9,2.9,0,0,0,89.94,22v.88h2.41V15.24H89.94Zm0,4.07a2,2,0,0,1-1.47.69A1.69,1.69,0,0,1,86.79,19a1.67,1.67,0,0,1,1.68-1.83,2,2,0,0,1,1.47.68Zm-16-8.71a1.39,1.39,0,1,0,1.39,1.39A1.38,1.38,0,0,0,73.93,11.5ZM72.72,22.86h2.43V15.24H72.72ZM59.22,17.2a1.67,1.67,0,0,1,1.44.72l1.58-1.47a3.69,3.69,0,0,0-3.13-1.4,4,4,0,1,0,0,8,3.72,3.72,0,0,0,3.13-1.4l-1.58-1.49a1.71,1.71,0,0,1-1.44.74A1.73,1.73,0,0,1,57.44,19,1.72,1.72,0,0,1,59.22,17.2ZM60.54,1.76h-2.2v7h1V5.74h1A2.5,2.5,0,0,0,62.34,5a1.89,1.89,0,0,0,.43-1.26A2,2,0,0,0,60.54,1.76Zm.85,2.79a1.31,1.31,0,0,1-.9.29H59.35V2.67h1.19c.91,0,1.19.55,1.19,1.07A1,1,0,0,1,61.39,4.55Zm44.06,9.19a.62.62,0,0,0-.68-.61H104v2h.3v-.8h.33l.53.8h.36l-.54-.81A.59.59,0,0,0,105.45,13.74Zm-1.2.35v-.71h.52a.36.36,0,1,1,0,.71Zm-35.82,1a3.48,3.48,0,0,0-2.64,1.12V12.33H63.36V22.86h2.43V17.94a1.86,1.86,0,0,1,1.47-.74c.77,0,1.26.3,1.26,1.23h0v4.43H71V17.43A2.22,2.22,0,0,0,68.43,15.05ZM71,8.73h1v-7H71Z"/></g></g></svg>